<?xml version='1.0' encoding='UTF-8' standalone='no'?>
<svg xmlns:xlink="http://www.w3.org/1999/xlink" baseProfile="tiny" version="1.2" width="296.926mm" viewBox="0 0 3507 2480" xmlns:cc="http://creativecommons.org/ns#" height="209.973mm" xmlns="http://www.w3.org/2000/svg" xmlns:inkscape="http://www.inkscape.org/namespaces/inkscape">
 <defs/>
 <g id="Página" fill="none" inkscape:label="Página" stroke="black" stroke-linejoin="bevel" inkscape:groupmode="layer" stroke-linecap="square" fill-rule="evenodd" stroke-width="1">
  <g font-family="MS Shell Dlg 2" fill="none" stroke-opacity="1" stroke="#000000" stroke-linejoin="bevel" stroke-linecap="square" font-style="normal" font-size="34.375" stroke-width="1" font-weight="400" transform="matrix(1,0,0,1,0,0)"/>
  <g font-family="MS Shell Dlg 2" fill="none" stroke-opacity="1" stroke="#000000" stroke-linejoin="bevel" stroke-linecap="square" font-style="normal" font-size="34.375" stroke-width="1" font-weight="400" transform="matrix(1,0,0,1,0,0)"/>
  <g font-family="MS Shell Dlg 2" fill="none" stroke-opacity="1" stroke="#000000" stroke-linejoin="bevel" stroke-linecap="square" font-style="normal" font-size="34.375" stroke-width="1" font-weight="400" transform="matrix(11.8081,0,0,11.8081,0,0)"/>
  <g font-family="MS Shell Dlg 2" fill="none" stroke-opacity="1" stroke="#000000" stroke-linejoin="bevel" stroke-linecap="square" font-style="normal" font-size="34.375" stroke-width="1" font-weight="400" transform="matrix(0.999751,0,0,0.999751,0,0)"/>
  <g font-family="MS Shell Dlg 2" fill="#ffffff" fill-opacity="1" stroke="none" font-style="normal" font-size="34.375" font-weight="400" transform="matrix(0.999751,0,0,0.999751,0,0)">
   <path vector-effect="none" fill-rule="evenodd" d="M-2,-2 L3510,-2 L3510,2483 L-2,2483 L-2,-2"/>
  </g>
  <g font-family="MS Shell Dlg 2" fill="none" stroke-opacity="1" stroke="#000000" stroke-linejoin="bevel" stroke-linecap="square" font-style="normal" font-size="34.375" stroke-width="1" font-weight="400" transform="matrix(0.999751,0,0,0.999751,0,0)"/>
  <g font-family="MS Shell Dlg 2" fill="none" stroke-opacity="1" stroke="#000000" stroke-linejoin="bevel" stroke-linecap="square" font-style="normal" font-size="34.375" stroke-width="1" font-weight="400" transform="matrix(11.8081,0,0,11.8081,0,0)"/>
  <g font-family="MS Shell Dlg 2" fill="none" stroke-opacity="1" stroke="#000000" stroke-linejoin="bevel" stroke-linecap="square" font-style="normal" font-size="34.375" stroke-width="1" font-weight="400" transform="matrix(11.8081,0,0,11.8081,0,0)"/>
  <g font-family="MS Shell Dlg 2" fill="none" stroke-opacity="1" stroke="#000000" stroke-linejoin="bevel" stroke-linecap="square" font-style="normal" font-size="34.375" stroke-width="1" font-weight="400" transform="matrix(1,0,0,1,0,0)"/>
 </g>
 <defs/>
 <g id="Mapa 1: Background" fill="none" inkscape:label="Mapa 1: Background" stroke="black" stroke-linejoin="bevel" inkscape:groupmode="layer" stroke-linecap="square" fill-rule="evenodd" stroke-width="1">
  <g font-family="MS Shell Dlg 2" fill="none" stroke-opacity="1" stroke="#000000" stroke-linejoin="bevel" stroke-linecap="square" font-style="normal" font-size="34.375" stroke-width="1" font-weight="400" transform="matrix(1,0,0,1,0,0)"/>
  <g font-family="MS Shell Dlg 2" fill="none" stroke-opacity="1" stroke="#000000" stroke-linejoin="bevel" stroke-linecap="square" font-style="normal" font-size="34.375" stroke-width="1" font-weight="400" transform="matrix(1,0,0,1,0,0)"/>
  <g font-family="MS Shell Dlg 2" fill="none" stroke-opacity="1" stroke="#000000" stroke-linejoin="bevel" stroke-linecap="square" font-style="normal" font-size="34.375" stroke-width="1" font-weight="400" transform="matrix(11.8081,0,0,11.8081,0,0)"/>
  <g font-family="MS Shell Dlg 2" fill="#ffffff" fill-opacity="1" stroke="none" font-style="normal" font-size="34.375" font-weight="400" transform="matrix(11.8081,0,0,11.8081,0,0)">
   <path vector-effect="none" fill-rule="evenodd" d="M0,0 L297,0 L297,210 L0,210 L0,0"/>
  </g>
  <g font-family="MS Shell Dlg 2" fill="none" stroke-opacity="1" stroke="#000000" stroke-linejoin="bevel" stroke-linecap="square" font-style="normal" font-size="34.375" stroke-width="1" font-weight="400" transform="matrix(11.8081,0,0,11.8081,0,0)"/>
  <g font-family="MS Shell Dlg 2" fill="none" stroke-opacity="1" stroke="#000000" stroke-linejoin="bevel" stroke-linecap="square" font-style="normal" font-size="34.375" stroke-width="1" font-weight="400" transform="matrix(11.8081,0,0,11.8081,0,0)"/>
  <g font-family="MS Shell Dlg 2" fill="none" stroke-opacity="1" stroke="#000000" stroke-linejoin="bevel" stroke-linecap="square" font-style="normal" font-size="34.375" stroke-width="1" font-weight="400" transform="matrix(11.8081,0,0,11.8081,0,0)"/>
  <g font-family="MS Shell Dlg 2" fill="none" stroke-opacity="1" stroke="#000000" stroke-linejoin="bevel" stroke-linecap="square" font-style="normal" font-size="34.375" stroke-width="1" font-weight="400" transform="matrix(11.8081,0,0,11.8081,0,0)"/>
  <g font-family="MS Shell Dlg 2" fill="none" stroke-opacity="1" stroke="#000000" stroke-linejoin="bevel" stroke-linecap="square" font-style="normal" font-size="34.375" stroke-width="1" font-weight="400" transform="matrix(1,0,0,1,0,0)"/>
  <g font-family="MS Shell Dlg 2" fill="none" stroke-opacity="1" stroke="#000000" stroke-linejoin="bevel" stroke-linecap="square" font-style="normal" font-size="34.375" stroke-width="1" font-weight="400" transform="matrix(11.8081,0,0,11.8081,0,0)"/>
  <g font-family="MS Shell Dlg 2" fill="none" stroke-opacity="1" stroke="#000000" stroke-linejoin="bevel" stroke-linecap="square" font-style="normal" font-size="34.375" stroke-width="1" font-weight="400" transform="matrix(11.8081,0,0,11.8081,0,0)"/>
  <g font-family="MS Shell Dlg 2" fill="none" stroke-opacity="1" stroke="#000000" stroke-linejoin="bevel" stroke-linecap="square" font-style="normal" font-size="34.375" stroke-width="1" font-weight="400" transform="matrix(1,0,0,1,0,0)"/>
 </g>
 <defs/>
 <g id="Mapa 1: gto" fill="none" inkscape:label="Mapa 1: gto" stroke="black" stroke-linejoin="bevel" inkscape:groupmode="layer" stroke-linecap="square" fill-rule="evenodd" stroke-width="1">
  <g font-family="MS Shell Dlg 2" fill="none" stroke-opacity="1" stroke="#000000" stroke-linejoin="bevel" stroke-linecap="square" font-style="normal" font-size="34.375" stroke-width="1" font-weight="400" transform="matrix(1,0,0,1,0,0)"/>
  <g font-family="MS Shell Dlg 2" fill="none" stroke-opacity="1" stroke="#000000" stroke-linejoin="bevel" stroke-linecap="square" font-style="normal" font-size="34.375" stroke-width="1" font-weight="400" transform="matrix(1,0,0,1,0,0)"/>
  <g font-family="MS Shell Dlg 2" fill="none" stroke-opacity="1" stroke="#000000" stroke-linejoin="bevel" stroke-linecap="square" font-style="normal" font-size="34.375" stroke-width="1" font-weight="400" transform="matrix(11.8081,0,0,11.8081,0,0)"/>
  <g font-family="MS Shell Dlg 2" fill="none" stroke-opacity="1" stroke="#000000" stroke-linejoin="bevel" stroke-linecap="square" font-style="normal" font-size="34.375" stroke-width="1" font-weight="400" transform="matrix(11.8081,0,0,11.8081,0,0)"/>
  <g font-family="MS Shell Dlg 2" fill="#000000" fill-opacity="0" stroke="none" font-style="normal" font-size="34.375" font-weight="400" transform="matrix(0.999751,0,0,0.999751,0,0)">
   <rect x="0" y="0" width="3508" height="2480"/>
  </g>
  <g font-family="MS Shell Dlg 2" fill="none" stroke-opacity="1" stroke="#000000" stroke-linejoin="bevel" stroke-linecap="square" font-style="normal" font-size="34.375" stroke-width="1" font-weight="400" transform="matrix(0.999751,0,0,0.999751,0,0)"/>
  <g font-family="MS Shell Dlg 2" fill="#f7fbff" fill-opacity="1" stroke-opacity="1" stroke="#232323" stroke-linejoin="bevel" stroke-linecap="square" font-style="normal" font-size="34.375" stroke-width="6.61417" font-weight="400" transform="matrix(0.999751,0,0,0.999751,0,0)">
   <path vector-effect="none" fill-rule="evenodd" d="M1875.21,1501.89 L1884.44,1478.41 L1849.58,1459.34 L1771.32,1459.97 L1746.37,1421.82 L1760.38,1364.99 L1736.8,1354.92 L1737.14,1328.5 L1774.39,1342.55 L1817.79,1332.69 L1843.77,1349.26 L1936.38,1332.27 L1955.18,1362.26 L2028.65,1305.63 L2072.4,1341.71 L2121.27,1350.52 L2139.38,1384.28 L2135.62,1438.59 L2118.19,1495.18 L2084.02,1470.03 L2023.87,1480.3 L1994.82,1511.74 L1930.23,1470.45 L1913.48,1497.28 L1875.21,1501.89"/>
   <path vector-effect="none" fill-rule="evenodd" d="M2118.19,1495.18 L2074.11,1551.34 L2050.18,1547.77 L2034.12,1609.36 L1985.93,1644.33 L1995.5,1704.41 L2055.99,1723.67 L2058.04,1774.94 L2007.46,1832.47 L1959.62,1831.21 L1956.89,1852.97 L1914.85,1831.01 L1892.64,1811.76 L1911.78,1766.36 L1884.44,1756.94 L1889.9,1705.46 L1822.92,1669.24 L1820.87,1611.87 L1820.53,1607.47 L1860.51,1589.46 L1848.89,1538.97 L1875.21,1501.89 L1913.48,1497.28 L1930.23,1470.45 L1994.82,1511.74 L2023.87,1480.3 L2084.02,1470.03 L2118.19,1495.18"/>
   <path vector-effect="none" fill-rule="evenodd" d="M877.645,1054.53 L839.711,1069.45 L826.041,1049.28 L787.423,1066.72 L801.435,1114.4 L767.943,1223.79 L751.198,1311.5 L650.724,1301.22 L588.526,1323.88 L573.83,1374.43 L566.995,1368.77 L552.3,1366.04 L560.16,1309.41 L587.5,1288.22 L714.289,1162.07 L745.046,1112.72 L768.627,1040.25 L785.031,1000.74 L843.128,987.498 L852.697,1050.96 L877.645,1054.53"/>
   <path vector-effect="none" fill-rule="evenodd" d="M1681.1,734.041 L1669.13,777.397 L1630.52,786.867 L1634.96,747.933 L1604.54,766.243 L1610.69,812.747 L1525.6,840.938 L1505.09,871.017 L1405.99,876.486 L1365.66,942.513 L1307.91,950.922 L1322.6,907.189 L1303.46,865.338 L1246.39,817.166 L1187.61,815.903 L1161.3,842.411 L1145.58,795.915 L1069.02,747.933 L1042.71,732.988 L1028.36,731.515 L1031.77,700.569 L992.472,656.14 L1081.33,623.917 L1109.35,626.865 L1157.19,611.489 L1152.41,655.508 L1184.88,672.776 L1287.74,624.548 L1324.65,651.296 L1370.45,636.975 L1358.83,574.832 L1383.09,524.048 L1416.58,505.5 L1377.62,467.556 L1332.85,461.231 L1360.19,326.454 L1288.43,334.683 L1250.49,339.114 L1246.73,258.919 L1264.5,236.753 L1268.6,155.453 L1330.12,138.766 L1380.36,143.413 L1410.09,169.604 L1490.74,166.014 L1488.01,181.854 L1550.89,233.797 L1660.93,224.508 L1744.66,239.075 L1819.16,284.67 L1830.1,321.39 L1883.07,330.463 L1903.23,341.645 L1878.28,394.594 L1861.88,423.066 L1800.02,418.215 L1795.92,461.02 L1720.05,486.529 L1714.59,539.643 L1682.12,595.69 L1699.21,623.285 L1679.73,688.147 L1681.1,734.041"/>
   <path vector-effect="none" fill-rule="evenodd" d="M2674.9,846.618 L2662.25,861.763 L2642.43,826.633 L2667.38,812.537 L2638.33,758.877 L2689.59,681.409 L2660.55,639.924 L2713.18,645.189 L2703.61,574.832 L2740.52,537.536 L2735.39,505.5 L2848.85,502.128 L2840.65,525.523 L2863.2,577.15 L2903.87,592.74 L2945.91,563.244 L3000.24,576.939 L3042.62,538.168 L3041.25,654.245 L2986.57,674.671 L2954.79,717.411 L2934.97,808.539 L2906.26,896.885 L2859.1,865.338 L2817.41,858.608 L2790.75,891.838 L2724.79,845.987 L2674.9,846.618"/>
   <path vector-effect="none" fill-rule="evenodd" d="M2486.25,1004.31 L2311.62,988.969 L2307.86,978.039 L2279.84,904.456 L2324.61,888.894 L2365.62,914.97 L2423.37,867.231 L2463.36,873.541 L2488.99,916.441 L2544.01,971.944 L2529.31,1010.2 L2486.25,1004.31"/>
   <path vector-effect="none" fill-rule="evenodd" d="M2662.25,861.763 L2674.9,846.618 L2724.79,845.987 L2790.75,891.838 L2806.81,900.04 L2774.35,1025.96 L2786.65,1052.01 L2743.93,1053.06 L2716.93,1032.89 L2724.11,1003.68 L2684.13,987.498 L2686.52,965.007 L2638.33,930.739 L2662.25,861.763"/>
   <path vector-effect="none" fill-rule="evenodd" d="M2638.33,930.739 L2686.52,965.007 L2684.13,987.498 L2724.11,1003.68 L2716.93,1032.89 L2743.93,1053.06 L2786.65,1052.01 L2790.41,1063.78 L2778.79,1094.24 L2737.1,1078.06 L2737.44,1104.11 L2703.26,1189.57 L2600.06,1188.73 L2537.86,1153.25 L2528.63,1059.79 L2514.62,1045.08 L2486.25,1004.31 L2529.31,1010.2 L2544.01,971.944 L2626.71,953.235 L2638.33,930.739"/>
   <path vector-effect="none" fill-rule="evenodd" d="M1638.03,2166.82 L1581.99,2192.29 L1537.22,2149.7 L1512.95,2196.47 L1509.54,2140.1 L1531.75,2116.5 L1506.12,2089.56 L1500.65,2040.47 L1552.94,2077.86 L1588.82,2073.06 L1638.03,2166.82"/>
   <path vector-effect="none" fill-rule="evenodd" d="M2544.01,971.944 L2488.99,916.441 L2463.36,873.541 L2423.37,867.231 L2390.56,805.383 L2401.16,763.297 L2433.63,738.251 L2410.39,724.989 L2407.99,679.935 L2431.57,621.6 L2480.79,626.023 L2479.76,604.327 L2558.71,568.933 L2535.47,519.833 L2574.08,419.902 L2587.07,398.602 L2562.12,340.59 L2608.26,358.312 L2622.61,414.841 L2644.48,395.649 L2721.04,465.448 L2735.39,505.5 L2740.52,537.536 L2703.61,574.832 L2713.18,645.189 L2660.55,639.924 L2689.59,681.409 L2638.33,758.877 L2667.38,812.537 L2642.43,826.633 L2662.25,861.763 L2638.33,930.739 L2626.71,953.235 L2544.01,971.944"/>
   <path vector-effect="none" fill-rule="evenodd" d="M3041.25,654.245 L3024.51,697.621 L3064.15,773.188 L3086.36,749.196 L3154.71,767.716 L3127.72,801.596 L3133.18,838.203 L3084.66,838.624 L2986.92,928.426 L2923.35,914.97 L2906.26,896.885 L2934.97,808.539 L2954.79,717.411 L2986.57,674.671 L3041.25,654.245"/>
   <path vector-effect="none" fill-rule="evenodd" d="M1910.41,1856.73 L1937.75,1890.19 L1916.56,1893.12 L1893.66,1941.2 L1933.99,1999.31 L1951.42,1995.34 L1960.3,2063.24 L1902.89,2108.15 L1866.32,2121.09 L1836.25,2136.34 L1846.5,2165.15 L1806.18,2229.44 L1756.96,2255.95 L1709.46,2209.62 L1732.7,2187.7 L1712.19,2168.28 L1724.16,2136.34 L1747.39,2110.86 L1801.73,2089.14 L1787.72,2047.15 L1701.94,2020.2 L1702.97,2032.11 L1668.79,2013.93 L1687.59,1974.44 L1679.73,1943.5 L1718.69,1934.3 L1741.93,1884.96 L1821.55,1869.91 L1833.86,1827.24 L1854.02,1854.22 L1910.41,1856.73"/>
   <path vector-effect="none" fill-rule="evenodd" d="M2233.02,1028.69 L2307.86,978.039 L2311.62,988.969 L2486.25,1004.31 L2514.62,1045.08 L2528.63,1059.79 L2537.86,1153.25 L2518.72,1144.43 L2516.67,1192.51 L2442.85,1237.22 L2356.39,1240.16 L2313.67,1226.1 L2293.51,1193.77 L2249.42,1107.05 L2233.02,1028.69"/>
   <path vector-effect="none" fill-rule="evenodd" d="M1292.53,1669.24 L1273.39,1630.51 L1350.97,1580.66 L1388.56,1595.33 L1387.19,1642.23 L1356.78,1634.07 L1329.09,1682.64 L1292.53,1669.24"/>
   <path vector-effect="none" fill-rule="evenodd" d="M1702.97,2032.11 L1701.94,2020.2 L1787.72,2047.15 L1801.73,2089.14 L1747.39,2110.86 L1724.16,2136.34 L1680.41,2124.64 L1713.56,2049.24 L1702.97,2032.11"/>
   <path vector-effect="none" fill-rule="evenodd" d="M2296.24,1817.62 L2254.55,1880.15 L2218.32,1877.85 L2171.16,1905.45 L2163.64,1888.1 L2098.37,1861.96 L2096.32,1798.79 L2058.04,1774.94 L2055.99,1723.67 L2116.48,1716.55 L2152.02,1679.71 L2196.11,1672.38 L2201.92,1651.66 L2243.27,1656.26 L2258.31,1624.02 L2255.23,1666.31 L2276.08,1718.02 L2276.08,1772.85 L2296.24,1817.62"/>
   <path vector-effect="none" fill-rule="evenodd" d="M2275.74,1578.57 L2279.84,1625.48 L2258.31,1624.02 L2243.27,1656.26 L2201.92,1651.66 L2196.11,1672.38 L2152.02,1679.71 L2116.48,1716.55 L2055.99,1723.67 L1995.5,1704.41 L1985.93,1644.33 L2034.12,1609.36 L2050.18,1547.77 L2074.11,1551.34 L2118.19,1495.18 L2135.62,1438.59 L2159.88,1437.12 L2175.26,1483.65 L2196.79,1490.15 L2208.75,1533.53 L2231.99,1527.66 L2275.74,1578.57"/>
   <path vector-effect="none" fill-rule="evenodd" d="M1640.09,1916.74 L1679.73,1943.5 L1687.59,1974.44 L1668.79,2013.93 L1702.97,2032.11 L1713.56,2049.24 L1680.41,2124.64 L1724.16,2136.34 L1712.19,2168.28 L1638.03,2166.82 L1588.82,2073.06 L1552.94,2077.86 L1500.65,2040.47 L1506.12,2089.56 L1437.77,2083.71 L1435.38,2107.94 L1414.19,2119.42 L1374.89,2165.36 L1381.72,2206.07 L1410.09,2220.68 L1370.79,2225.27 L1290.82,2210.45 L1284.33,2120.88 L1305.17,2112.32 L1269.29,2074.52 L1271.68,2030.44 L1333.2,2037.33 L1335.25,1976.11 L1354.04,1950.4 L1458.96,1924.9 L1502.36,1979.03 L1555.33,1947.06 L1603.86,1943.92 L1599.08,1914.65 L1640.09,1916.74"/>
   <path vector-effect="none" fill-rule="evenodd" d="M2368.01,1847.74 L2386.12,1909.43 L2413.12,1933.68 L2362.54,1943.71 L2324.27,2060.31 L2366.98,2055.3 L2346.48,2089.77 L2392.27,2112.95 L2382.7,2169.33 L2416.88,2187.7 L2411.75,2273.47 L2319.48,2281.82 L2312.3,2254.28 L2269.93,2235.29 L2271.29,2186.86 L2261.73,2167.66 L2261.73,2167.24 L2261.73,2167.66 L2253.87,2171.21 L2246.35,2163.9 L2244.98,2162.44 L2239.85,2159.93 L2223.45,2144.48 L2223.11,2144.48 L2205.34,2167.87 L2175.61,2167.87 L2148.61,2084.55 L2100.42,2084.75 L2123.66,2033.99 L2073.42,1999.31 L2080.94,1943.08 L2061.8,1892.7 L2098.37,1861.96 L2163.64,1888.1 L2171.16,1905.45 L2218.32,1877.85 L2254.55,1880.15 L2296.24,1817.62 L2361.52,1830.8 L2368.01,1847.74"/>
   <path vector-effect="none" fill-rule="evenodd" d="M1960.3,2063.24 L1951.42,1995.34 L1933.99,1999.31 L1893.66,1941.2 L1916.56,1893.12 L1937.75,1890.19 L1910.41,1856.73 L1914.85,1831.01 L1956.89,1852.97 L1959.62,1831.21 L2007.46,1832.47 L2058.04,1774.94 L2096.32,1798.79 L2098.37,1861.96 L2061.8,1892.7 L2080.94,1943.08 L2073.42,1999.31 L2019.77,2051.54 L1960.3,2063.24"/>
   <path vector-effect="none" fill-rule="evenodd" d="M2424.74,1930.75 L2454.13,1972.56 L2419.96,2010.38 L2419.27,2052.59 L2392.27,2112.95 L2346.48,2089.77 L2366.98,2055.3 L2324.27,2060.31 L2362.54,1943.71 L2413.12,1933.68 L2386.12,1909.43 L2424.74,1930.75"/>
   <path vector-effect="none" fill-rule="evenodd" d="M2254.89,2201.47 L2269.93,2235.29 L2312.3,2254.28 L2319.48,2281.82 L2251.13,2309.98 L2225.16,2350.24 L2234.73,2301.22 L2163.99,2300.39 L2201.58,2271.6 L2154.07,2278.06 L2195.08,2178.93 L2230.28,2172.25 L2254.89,2201.47"/>
   <path vector-effect="none" fill-rule="evenodd" d="M1682.46,1676.15 L1757.99,1684.11 L1822.92,1669.24 L1889.9,1705.46 L1884.44,1756.94 L1911.78,1766.36 L1892.64,1811.76 L1914.85,1831.01 L1910.41,1856.73 L1854.02,1854.22 L1833.86,1827.24 L1821.55,1869.91 L1741.93,1884.96 L1746.37,1861.54 L1701.94,1838.12 L1677.34,1743.13 L1682.46,1676.15"/>
   <path vector-effect="none" fill-rule="evenodd" d="M2154.07,2278.06 L2134.6,2311.24 L2090.85,2302.68 L2030.36,2329.18 L1997.55,2361.92 L1962.01,2358.79 L1949.03,2312.9 L1913.83,2286.83 L1901.86,2336.89 L1822.92,2305.39 L1781.23,2304.98 L1768.92,2341.27 L1721.42,2315.83 L1756.96,2255.95 L1806.18,2229.44 L1846.5,2165.15 L1836.25,2136.34 L1866.32,2121.09 L1902.89,2108.15 L1960.3,2063.24 L2019.77,2051.54 L2073.42,1999.31 L2123.66,2033.99 L2100.42,2084.75 L2148.61,2084.55 L2175.61,2167.87 L2205.34,2167.87 L2223.11,2144.48 L2223.45,2144.48 L2239.85,2159.93 L2244.98,2162.44 L2246.35,2163.9 L2253.87,2171.21 L2261.73,2167.66 L2261.73,2167.24 L2261.73,2167.66 L2271.29,2186.86 L2269.93,2235.29 L2254.89,2201.47 L2230.28,2172.25 L2195.08,2178.93 L2154.07,2278.06"/>
   <path vector-effect="none" fill-rule="evenodd" d="M2233.02,1028.69 L2249.42,1107.05 L2293.51,1193.77 L2296.24,1218.12 L2255.57,1261.57 L2261.73,1280.66 L2199.53,1307.1 L2194.74,1371.07 L2210.81,1415.11 L2159.88,1437.12 L2135.62,1438.59 L2139.38,1384.28 L2121.27,1350.52 L2072.4,1341.71 L2028.65,1305.63 L1955.18,1362.26 L1936.38,1332.27 L1843.77,1349.26 L1817.79,1332.69 L1774.39,1342.55 L1737.14,1328.5 L1736.8,1354.92 L1688.96,1359.33 L1652.39,1325.56 L1630.86,1272.48 L1693.06,1243.1 L1731.33,1201.75 L1766.19,1166.48 L1808.57,1154.72 L1821.55,1104.11 L1898.79,1088.78 L1882.04,1033.94 L1917.24,1039.82 L1978.07,1005.99 L2047.79,988.338 L2116.82,985.396 L2192.35,994.223 L2233.02,1028.69"/>
   <path vector-effect="none" fill-rule="evenodd" d="M877.645,1054.53 L879.353,1092.14 L937.109,1104.95 L931.983,1130.36 L1004.09,1117.76 L1001.02,1167.32 L956.247,1163.54 L952.829,1214.97 L973.334,1233.44 L960.69,1329.75 L932.666,1347.58 L893.023,1341.92 L853.722,1299.96 L795.967,1288.64 L751.198,1311.5 L767.943,1223.79 L801.435,1114.4 L787.423,1066.72 L826.041,1049.28 L839.711,1069.45 L877.645,1054.53"/>
   <path vector-effect="none" fill-rule="evenodd" d="M853.722,1299.96 L893.023,1341.92 L932.666,1347.58 L918.996,1362.26 L988.713,1354.09 L968.891,1424.12 L980.169,1461.44 L924.122,1469.61 L887.897,1546.1 L854.064,1563.91 L853.722,1591.55 L809.637,1604.75 L799.726,1641.4 L760.083,1614.8 L721.124,1634.91 L722.833,1609.36 L680.114,1615.43 L698.91,1564.32 L681.139,1498.95 L625.776,1484.49 L631.244,1437.33 L609.372,1408.61 L577.248,1412.38 L573.83,1374.43 L588.526,1323.88 L650.724,1301.22 L751.198,1311.5 L795.967,1288.64 L853.722,1299.96"/>
   <path vector-effect="none" fill-rule="evenodd" d="M980.169,1461.44 L1037.92,1463.11 L1059.11,1507.13 L1098.76,1527.24 L1072.1,1656.26 L1040.66,1632.6 L945.994,1643.7 L922.755,1613.96 L957.614,1613.55 L950.437,1562.86 L909.086,1566 L887.897,1546.1 L924.122,1469.61 L980.169,1461.44"/>
   <path vector-effect="none" fill-rule="evenodd" d="M1387.19,1642.23 L1421.02,1649.77 L1424.78,1684.74 L1480.15,1738.32 L1583.36,1698.97 L1623.34,1755.9 L1603.86,1800.88 L1606.25,1897.72 L1640.09,1916.74 L1599.08,1914.65 L1603.86,1943.92 L1555.33,1947.06 L1502.36,1979.03 L1458.96,1924.9 L1354.04,1950.4 L1335.25,1976.11 L1298.68,1976.74 L1272.02,1946.85 L1230.33,1952.49 L1245.02,1929.29 L1228.96,1890.4 L1228.62,1890.4 L1228.96,1890.4 L1280.57,1819.08 L1315.08,1784.77 L1298.68,1715.72 L1329.09,1682.64 L1356.78,1634.07 L1387.19,1642.23"/>
   <path vector-effect="none" fill-rule="evenodd" d="M2503.68,316.114 L2562.12,340.59 L2587.07,398.602 L2574.08,419.902 L2535.47,519.833 L2558.71,568.933 L2479.76,604.327 L2480.79,626.023 L2431.57,621.6 L2407.99,679.935 L2410.39,724.989 L2433.63,738.251 L2401.16,763.297 L2390.56,805.383 L2423.37,867.231 L2365.62,914.97 L2324.61,888.894 L2279.84,904.456 L2307.86,978.039 L2233.02,1028.69 L2192.35,994.223 L2116.82,985.396 L2067.27,923.17 L2055.31,884.267 L2088.12,872.7 L2095.98,840.938 L2030.36,788.55 L2024.89,766.454 L2078.21,750.248 L2050.87,688.989 L2109.65,722.042 L2147.58,724.358 L2157.83,658.456 L2113.41,646.663 L2072.06,656.14 L2043.69,581.785 L2047.45,513.088 L2003.02,519.622 L2054.28,492.221 L2015.67,491.378 L1992.77,439.092 L2029.34,474.513 L2068.64,477.464 L2093.93,504.025 L2117.51,482.313 L2140.06,525.734 L2172.53,506.554 L2227.21,483.367 L2302.39,482.524 L2311.62,467.345 L2279.15,423.066 L2307.52,383.626 L2316.41,339.747 L2425.42,310.417 L2503.68,316.114"/>
   <path vector-effect="none" fill-rule="evenodd" d="M887.897,1546.1 L909.086,1566 L950.437,1562.86 L957.614,1613.55 L922.755,1613.96 L945.994,1643.7 L1040.66,1632.6 L1072.1,1656.26 L1066.63,1745.64 L1083.38,1765.52 L1057.4,1828.7 L1028.36,1859.45 L1048.52,1913.61 L1050.23,1955.42 L1026.31,1988.44 L985.295,2011.22 L976.752,2041.72 L940.526,2019.16 L904.985,2030.23 L866.025,2017.69 L824.674,2003.9 L738.553,2039.01 L746.072,2014.98 L711.555,2001.19 L698.91,1951.03 L717.023,1920.3 L689.683,1910.68 L704.378,1867.81 L657.217,1847.74 L619.283,1863 L635.003,1826.19 L542.731,1820.76 L577.59,1755.48 L580.665,1750.88 L636.37,1635.53 L663.71,1647.26 L680.114,1615.43 L722.833,1609.36 L721.124,1634.91 L760.083,1614.8 L799.726,1641.4 L809.637,1604.75 L853.722,1591.55 L854.064,1563.91 L887.897,1546.1"/>
   <path vector-effect="none" fill-rule="evenodd" d="M1156.51,1400.43 L1140.79,1420.56 L1185.22,1503.35 L1188.29,1576.89 L1215.63,1603.7 L1177.7,1616.48 L1192.39,1677.41 L1245.71,1686.2 L1292.53,1669.24 L1329.09,1682.64 L1298.68,1715.72 L1315.08,1784.77 L1280.57,1819.08 L1231.35,1781.63 L1171.55,1804.86 L1104.91,1812.6 L1116.87,1893.95 L1048.52,1913.61 L1028.36,1859.45 L1057.4,1828.7 L1083.38,1765.52 L1066.63,1745.64 L1072.1,1656.26 L1098.76,1527.24 L1059.11,1507.13 L1037.92,1463.11 L1052.62,1432.72 L1029.04,1407.14 L1077.23,1368.35 L1089.53,1393.93 L1156.51,1400.43"/>
   <path vector-effect="none" fill-rule="evenodd" d="M1280.57,1819.08 L1228.96,1890.4 L1228.62,1890.4 L1185.22,1904.2 L1160.61,1880.15 L1116.87,1893.95 L1104.91,1812.6 L1171.55,1804.86 L1231.35,1781.63 L1280.57,1819.08"/>
   <path vector-effect="none" fill-rule="evenodd" d="M1992.77,439.092 L2015.67,491.378 L2054.28,492.221 L2003.02,519.622 L2047.45,513.088 L2043.69,581.785 L2072.06,656.14 L2113.41,646.663 L2157.83,658.456 L2147.58,724.358 L2109.65,722.042 L2050.87,688.989 L2078.21,750.248 L2024.89,766.454 L1941.51,738.251 L1832.83,736.146 L1782.59,758.035 L1726.89,706.253 L1706.04,739.724 L1681.1,734.041 L1679.73,688.147 L1699.21,623.285 L1682.12,595.69 L1714.59,539.643 L1720.05,486.529 L1795.92,461.02 L1800.02,418.215 L1861.88,423.066 L1878.28,394.594 L1930.23,425.807 L1992.77,439.092"/>
   <path vector-effect="none" fill-rule="evenodd" d="M1820.53,1607.47 L1820.87,1611.87 L1822.92,1669.24 L1757.99,1684.11 L1682.46,1676.15 L1632.57,1661.92 L1634.28,1616.9 L1657.17,1614.8 L1667.43,1626.11 L1662.98,1596.37 L1697.84,1616.69 L1777.81,1592.81 L1820.53,1607.47"/>
   <path vector-effect="none" fill-rule="evenodd" d="M1736.8,1354.92 L1760.38,1364.99 L1746.37,1421.82 L1771.32,1459.97 L1849.58,1459.34 L1884.44,1478.41 L1875.21,1501.89 L1848.89,1538.97 L1860.51,1589.46 L1820.53,1607.47 L1777.81,1592.81 L1697.84,1616.69 L1662.98,1596.37 L1667.43,1626.11 L1657.17,1614.8 L1644.53,1455.57 L1602.83,1443.41 L1606.94,1393.51 L1652.39,1325.56 L1688.96,1359.33 L1736.8,1354.92"/>
  </g>
  <g font-family="MS Shell Dlg 2" fill="#08306b" fill-opacity="1" stroke-opacity="1" stroke="#232323" stroke-linejoin="bevel" stroke-linecap="square" font-style="normal" font-size="34.375" stroke-width="6.61417" font-weight="400" transform="matrix(0.999751,0,0,0.999751,0,0)">
   <path vector-effect="none" fill-rule="evenodd" d="M1628.81,1266.6 L1630.86,1272.48 L1652.39,1325.56 L1606.94,1393.51 L1602.83,1443.41 L1644.53,1455.57 L1657.17,1614.8 L1634.28,1616.9 L1632.57,1661.92 L1682.46,1676.15 L1677.34,1743.13 L1623.34,1755.9 L1583.36,1698.97 L1480.15,1738.32 L1424.78,1684.74 L1421.02,1649.77 L1387.19,1642.23 L1388.56,1595.33 L1426.49,1584.43 L1441.53,1501.89 L1438.45,1455.57 L1496.21,1391.62 L1523.21,1394.98 L1571.74,1286.54 L1628.81,1266.6"/>
  </g>
  <g font-family="MS Shell Dlg 2" fill="#f7fbff" fill-opacity="1" stroke-opacity="1" stroke="#232323" stroke-linejoin="bevel" stroke-linecap="square" font-style="normal" font-size="34.375" stroke-width="6.61417" font-weight="400" transform="matrix(0.999751,0,0,0.999751,0,0)">
   <path vector-effect="none" fill-rule="evenodd" d="M1388.56,1595.33 L1350.97,1580.66 L1273.39,1630.51 L1292.53,1669.24 L1245.71,1686.2 L1192.39,1677.41 L1177.7,1616.48 L1215.63,1603.7 L1188.29,1576.89 L1185.22,1503.35 L1140.79,1420.56 L1156.51,1400.43 L1233.4,1341.71 L1281.93,1340.87 L1284.33,1291.15 L1337.64,1295.56 L1426.49,1299.75 L1493.82,1313.18 L1571.74,1286.54 L1523.21,1394.98 L1496.21,1391.62 L1438.45,1455.57 L1441.53,1501.89 L1426.49,1584.43 L1388.56,1595.33"/>
   <path vector-effect="none" fill-rule="evenodd" d="M1037.92,1463.11 L980.169,1461.44 L968.891,1424.12 L988.713,1354.09 L918.996,1362.26 L932.666,1347.58 L960.69,1329.75 L973.334,1233.44 L981.194,1267.23 L1033.14,1192.93 L1098.76,1201.12 L1141.13,1177.61 L1186.59,1207.84 L1181.12,1282.55 L1228.62,1287.38 L1233.4,1341.71 L1156.51,1400.43 L1089.53,1393.93 L1077.23,1368.35 L1029.04,1407.14 L1052.62,1432.72 L1037.92,1463.11"/>
   <path vector-effect="none" fill-rule="evenodd" d="M1307.91,950.922 L1365.66,942.513 L1405.99,876.486 L1505.09,871.017 L1537.9,866.6 L1565.93,927.796 L1607.62,939.57 L1567.29,1058.31 L1588.14,1102.01 L1633.59,1113.35 L1663.32,1134.77 L1602.83,1164.8 L1628.81,1266.6 L1571.74,1286.54 L1493.82,1313.18 L1426.49,1299.75 L1337.64,1295.56 L1381.38,1244.78 L1354.38,1199.65 L1366.34,1119.23 L1336.95,1094.24 L1349.26,1073.23 L1291.5,1028.27 L1287.74,994.434 L1253.91,996.535 L1255.62,952.183 L1263.82,951.763 L1307.91,950.922"/>
   <path vector-effect="none" fill-rule="evenodd" d="M1042.71,732.988 L1069.02,747.933 L1145.58,795.915 L1161.3,842.411 L1187.61,815.903 L1246.39,817.166 L1303.46,865.338 L1322.6,907.189 L1307.91,950.922 L1263.82,951.763 L1255.62,952.183 L1215.29,935.154 L1207.09,972.784 L1185.9,1098.65 L1106.96,1076.8 L1097.73,1137.5 L1141.13,1177.61 L1098.76,1201.12 L1033.14,1192.93 L981.194,1267.23 L973.334,1233.44 L952.829,1214.97 L956.247,1163.54 L1001.02,1167.32 L1004.09,1117.76 L931.983,1130.36 L937.109,1104.95 L879.353,1092.14 L877.645,1054.53 L852.697,1050.96 L843.128,987.498 L826.041,952.183 L875.594,930.108 L890.631,856.925 L896.099,812.958 L984.612,770.873 L1031.09,764.77 L1028.36,731.515 L1042.71,732.988"/>
   <path vector-effect="none" fill-rule="evenodd" d="M1741.93,1884.96 L1718.69,1934.3 L1679.73,1943.5 L1640.09,1916.74 L1606.25,1897.72 L1603.86,1800.88 L1623.34,1755.9 L1677.34,1743.13 L1701.94,1838.12 L1746.37,1861.54 L1741.93,1884.96"/>
   <path vector-effect="none" fill-rule="evenodd" d="M1109.35,626.865 L1089.53,573.358 L1033.82,499.177 L1053.3,480.627 L1092.6,407.46 L1084.74,379.829 L1123.36,259.974 L1099.44,258.497 L1093.29,209.094 L1143.87,210.361 L1174.28,185.866 L1189.66,172.983 L1213.93,152.707 L1268.6,155.453 L1264.5,236.753 L1246.73,258.919 L1250.49,339.114 L1288.43,334.683 L1360.19,326.454 L1332.85,461.231 L1377.62,467.556 L1416.58,505.5 L1383.09,524.048 L1358.83,574.832 L1370.45,636.975 L1324.65,651.296 L1287.74,624.548 L1184.88,672.776 L1152.41,655.508 L1157.19,611.489 L1109.35,626.865"/>
   <path vector-effect="none" fill-rule="evenodd" d="M1506.12,2089.56 L1531.75,2116.5 L1509.54,2140.1 L1512.95,2196.47 L1551.57,2216.09 L1507.49,2232.36 L1505.78,2253.65 L1467.84,2225.06 L1410.09,2220.68 L1381.72,2206.07 L1374.89,2165.36 L1414.19,2119.42 L1435.38,2107.94 L1437.77,2083.71 L1506.12,2089.56"/>
  </g>
  <g font-family="MS Shell Dlg 2" fill="none" stroke-opacity="1" stroke="#000000" stroke-linejoin="bevel" stroke-linecap="square" font-style="normal" font-size="34.375" stroke-width="1" font-weight="400" transform="matrix(0.999751,0,0,0.999751,0,0)"/>
  <g font-family="MS Shell Dlg 2" fill="none" stroke-opacity="1" stroke="#000000" stroke-linejoin="bevel" stroke-linecap="square" font-style="normal" font-size="34.375" stroke-width="1" font-weight="400" transform="matrix(11.8081,0,0,11.8081,0,0)"/>
  <g font-family="MS Shell Dlg 2" fill="none" stroke-opacity="1" stroke="#000000" stroke-linejoin="bevel" stroke-linecap="square" font-style="normal" font-size="34.375" stroke-width="1" font-weight="400" transform="matrix(11.8081,0,0,11.8081,0,0)"/>
  <g font-family="MS Shell Dlg 2" fill="none" stroke-opacity="1" stroke="#000000" stroke-linejoin="bevel" stroke-linecap="square" font-style="normal" font-size="34.375" stroke-width="1" font-weight="400" transform="matrix(11.8081,0,0,11.8081,0,0)"/>
  <g font-family="MS Shell Dlg 2" fill="none" stroke-opacity="1" stroke="#000000" stroke-linejoin="bevel" stroke-linecap="square" font-style="normal" font-size="34.375" stroke-width="1" font-weight="400" transform="matrix(1,0,0,1,0,0)"/>
  <g font-family="MS Shell Dlg 2" fill="none" stroke-opacity="1" stroke="#000000" stroke-linejoin="bevel" stroke-linecap="square" font-style="normal" font-size="34.375" stroke-width="1" font-weight="400" transform="matrix(11.8081,0,0,11.8081,0,0)"/>
  <g font-family="MS Shell Dlg 2" fill="none" stroke-opacity="1" stroke="#000000" stroke-linejoin="bevel" stroke-linecap="square" font-style="normal" font-size="34.375" stroke-width="1" font-weight="400" transform="matrix(11.8081,0,0,11.8081,0,0)"/>
  <g font-family="MS Shell Dlg 2" fill="none" stroke-opacity="1" stroke="#000000" stroke-linejoin="bevel" stroke-linecap="square" font-style="normal" font-size="34.375" stroke-width="1" font-weight="400" transform="matrix(1,0,0,1,0,0)"/>
 </g>
 <defs/>
 <g id="Mapa 1: gto (Labels)" fill="none" inkscape:label="Mapa 1: gto (Labels)" stroke="black" stroke-linejoin="bevel" inkscape:groupmode="layer" stroke-linecap="square" fill-rule="evenodd" stroke-width="1">
  <g font-family="MS Shell Dlg 2" fill="none" stroke-opacity="1" stroke="#000000" stroke-linejoin="bevel" stroke-linecap="square" font-style="normal" font-size="34.375" stroke-width="1" font-weight="400" transform="matrix(1,0,0,1,0,0)"/>
  <g font-family="MS Shell Dlg 2" fill="none" stroke-opacity="1" stroke="#000000" stroke-linejoin="bevel" stroke-linecap="square" font-style="normal" font-size="34.375" stroke-width="1" font-weight="400" transform="matrix(1,0,0,1,0,0)"/>
  <g font-family="MS Shell Dlg 2" fill="none" stroke-opacity="1" stroke="#000000" stroke-linejoin="bevel" stroke-linecap="square" font-style="normal" font-size="34.375" stroke-width="1" font-weight="400" transform="matrix(11.8081,0,0,11.8081,0,0)"/>
  <g font-family="MS Shell Dlg 2" fill="none" stroke-opacity="1" stroke="#000000" stroke-linejoin="bevel" stroke-linecap="square" font-style="normal" font-size="34.375" stroke-width="1" font-weight="400" transform="matrix(11.8081,0,0,11.8081,0,0)"/>
  <g font-family="MS Shell Dlg 2" fill="#000000" fill-opacity="0" stroke="none" font-style="normal" font-size="34.375" font-weight="400" transform="matrix(0.999751,0,0,0.999751,0,0)">
   <rect x="0" y="0" width="3508" height="2480"/>
  </g>
  <g font-family="MS Shell Dlg 2" fill="none" stroke-opacity="1" stroke="#000000" stroke-linejoin="bevel" stroke-linecap="square" font-style="normal" font-size="34.375" stroke-width="1" font-weight="400" transform="matrix(0.999751,0,0,0.999751,0,0)"/>
  <g font-family="MS Shell Dlg 2" fill="none" stroke-opacity="1" stroke="#000000" stroke-linejoin="bevel" stroke-linecap="square" font-style="normal" font-size="34.375" stroke-width="1" font-weight="400" transform="matrix(0.31992,0,0,0.31992,1529.1,1594.29)"/>
  <g font-family="MS Shell Dlg 2" fill="#ffffff" fill-opacity="1" stroke="none" font-style="normal" font-size="34.375" font-weight="400" transform="matrix(0.999751,0,0,0.999751,1529.1,1594.29)">
   <path vector-effect="non-scaling-stroke" fill-rule="evenodd" d="M-152.688,-33.5 L152.688,-33.5 L152.688,33.5 L-152.688,33.5 L-152.688,-33.5"/>
  </g>
  <g font-family="MS Shell Dlg 2" fill="none" stroke-opacity="1" stroke="#000000" stroke-linejoin="bevel" stroke-linecap="square" font-style="normal" font-size="34.375" stroke-width="1" font-weight="400" transform="matrix(0.31992,0,0,0.31992,1529.1,1594.29)"/>
  <g font-family="MS Shell Dlg 2" fill="none" stroke-opacity="1" stroke="#000000" stroke-linejoin="bevel" stroke-linecap="square" font-style="normal" font-size="34.375" stroke-width="1" font-weight="400" transform="matrix(0.999751,0,0,0.999751,0,0)"/>
  <g font-family="MS Shell Dlg 2" fill="none" stroke-opacity="1" stroke="#000000" stroke-linejoin="bevel" stroke-linecap="square" font-style="normal" font-size="34.375" stroke-width="1" font-weight="400" transform="matrix(0.999751,0,0,0.999751,1376.45,1614.53)"/>
  <g font-family="MS Shell Dlg 2" fill="none" stroke-opacity="1" stroke="#000000" stroke-linejoin="bevel" stroke-linecap="square" font-style="normal" font-size="34.375" stroke-width="1" font-weight="400" transform="matrix(0.31992,0,0,0.31992,1376.45,1614.53)"/>
  <g font-family="MS Shell Dlg 2" fill="#fafafa" fill-opacity="0" stroke-opacity="1" stroke="#fafafa" stroke-linejoin="bevel" stroke-linecap="square" font-style="normal" font-size="34.375" stroke-width="16.5354" font-weight="400" transform="matrix(0.999751,0,0,0.999751,1376.45,1614.53)">
   <path vector-effect="none" fill-rule="nonzero" d="M2.0957,-13.5088 L10.252,-14.3018 C10.7428,-11.5641 11.7388,-9.55339 13.2397,-8.26953 C14.7407,-6.98568 16.7656,-6.34375 19.3145,-6.34375 C22.0143,-6.34375 24.0487,-6.91488 25.4175,-8.05713 C26.7863,-9.19938 27.4707,-10.5352 27.4707,-12.0645 C27.4707,-13.0462 27.1828,-13.8817 26.6069,-14.5708 C26.0311,-15.2599 25.0257,-15.8594 23.5908,-16.3691 C22.609,-16.709 20.3717,-17.3132 16.8789,-18.1816 C12.3854,-19.2956 9.23242,-20.6644 7.41992,-22.2881 C4.87109,-24.5726 3.59668,-27.3574 3.59668,-30.6426 C3.59668,-32.7572 4.19613,-34.7349 5.39502,-36.5757 C6.59391,-38.4165 8.32145,-39.8184 10.5776,-40.7813 C12.8338,-41.7441 15.5573,-42.2256 18.748,-42.2256 C23.959,-42.2256 27.8813,-41.0833 30.5151,-38.7988 C33.1489,-36.5143 34.5319,-33.4652 34.6641,-29.6514 L26.2813,-29.2832 C25.9225,-31.4167 25.1532,-32.9507 23.9731,-33.8853 C22.7931,-34.8198 21.0231,-35.2871 18.6631,-35.2871 C16.2275,-35.2871 14.3206,-34.7868 12.9424,-33.7861 C12.055,-33.1442 11.6113,-32.2852 11.6113,-31.209 C11.6113,-30.2272 12.0267,-29.387 12.8574,-28.6885 C13.9147,-27.8011 16.4824,-26.876 20.5605,-25.9131 C24.6387,-24.9502 27.6548,-23.9543 29.6089,-22.9253 C31.563,-21.8963 33.0923,-20.4897 34.1968,-18.7056 C35.3013,-16.9214 35.8535,-14.7171 35.8535,-12.0928 C35.8535,-9.71387 35.1927,-7.486 33.8711,-5.40918 C32.5495,-3.33236 30.6803,-1.7889 28.2637,-0.778809 C25.847,0.231283 22.8356,0.736328 19.2295,0.736328 C13.9808,0.736328 9.94987,-0.476725 7.13672,-2.90283 C4.32357,-5.32894 2.64323,-8.86426 2.0957,-13.5088 M49.4854,-20.9004 L42.2637,-22.2031 C43.0755,-25.1107 44.4727,-27.263 46.4551,-28.6602 C48.4375,-30.0573 51.3828,-30.7559 55.291,-30.7559 C58.8405,-30.7559 61.4837,-30.3358 63.2207,-29.4956 C64.9577,-28.6554 66.1802,-27.5887 66.8882,-26.2954 C67.5962,-25.0021 67.9502,-22.6279 67.9502,-19.1729 L67.8652,-9.88379 C67.8652,-7.24056 67.9927,-5.29118 68.2476,-4.03564 C68.5024,-2.78011 68.9792,-1.4349 69.6777,0 L61.8047,0 C61.597,-0.528646 61.3421,-1.31217 61.04,-2.35059 C60.9079,-2.82259 60.8135,-3.13411 60.7568,-3.28516 C59.3975,-1.96354 57.9437,-0.972331 56.3955,-0.311523 C54.8473,0.349284 53.1953,0.679688 51.4395,0.679688 C48.3431,0.679688 45.9028,-0.160482 44.1187,-1.84082 C42.3345,-3.52116 41.4424,-5.64518 41.4424,-8.21289 C41.4424,-9.91211 41.8483,-11.4272 42.6602,-12.7583 C43.472,-14.0894 44.6095,-15.1089 46.0728,-15.8169 C47.536,-16.5249 49.6458,-17.1432 52.4023,-17.6719 C56.1217,-18.3704 58.6989,-19.0218 60.1338,-19.626 L60.1338,-20.4189 C60.1338,-21.9482 59.7562,-23.0386 59.001,-23.6899 C58.2458,-24.3413 56.8203,-24.667 54.7246,-24.667 C53.3086,-24.667 52.2041,-24.3885 51.4111,-23.8315 C50.6182,-23.2746 49.9762,-22.2975 49.4854,-20.9004 M60.1338,-14.4434 C59.1143,-14.1035 57.5,-13.6976 55.291,-13.2256 C53.082,-12.7536 51.6377,-12.291 50.958,-11.8379 C49.9196,-11.1016 49.4004,-10.167 49.4004,-9.03418 C49.4004,-7.92025 49.8158,-6.95736 50.6465,-6.14551 C51.4772,-5.33366 52.5345,-4.92773 53.8184,-4.92773 C55.2533,-4.92773 56.6221,-5.39974 57.9248,-6.34375 C58.8877,-7.0612 59.5202,-7.93913 59.8223,-8.97754 C60.0299,-9.65723 60.1338,-10.9505 60.1338,-12.8574 L60.1338,-14.4434 M75.9131,0 L75.9131,-41.5176 L83.8711,-41.5176 L83.8711,0 L75.9131,0 M98.2354,-20.9004 L91.0137,-22.2031 C91.8255,-25.1107 93.2227,-27.263 95.2051,-28.6602 C97.1875,-30.0573 100.133,-30.7559 104.041,-30.7559 C107.59,-30.7559 110.234,-30.3358 111.971,-29.4956 C113.708,-28.6554 114.93,-27.5887 115.638,-26.2954 C116.346,-25.0021 116.7,-22.6279 116.7,-19.1729 L116.615,-9.88379 C116.615,-7.24056 116.743,-5.29118 116.998,-4.03564 C117.252,-2.78011 117.729,-1.4349 118.428,0 L110.555,0 C110.347,-0.528646 110.092,-1.31217 109.79,-2.35059 C109.658,-2.82259 109.563,-3.13411 109.507,-3.28516 C108.147,-1.96354 106.694,-0.972331 105.146,-0.311523 C103.597,0.349284 101.945,0.679688 100.189,0.679688 C97.0931,0.679688 94.6528,-0.160482 92.8687,-1.84082 C91.0845,-3.52116 90.1924,-5.64518 90.1924,-8.21289 C90.1924,-9.91211 90.5983,-11.4272 91.4102,-12.7583 C92.222,-14.0894 93.3595,-15.1089 94.8228,-15.8169 C96.286,-16.5249 98.3958,-17.1432 101.152,-17.6719 C104.872,-18.3704 107.449,-19.0218 108.884,-19.626 L108.884,-20.4189 C108.884,-21.9482 108.506,-23.0386 107.751,-23.6899 C106.996,-24.3413 105.57,-24.667 103.475,-24.667 C102.059,-24.667 100.954,-24.3885 100.161,-23.8315 C99.3682,-23.2746 98.7262,-22.2975 98.2354,-20.9004 M108.884,-14.4434 C107.864,-14.1035 106.25,-13.6976 104.041,-13.2256 C101.832,-12.7536 100.388,-12.291 99.708,-11.8379 C98.6696,-11.1016 98.1504,-10.167 98.1504,-9.03418 C98.1504,-7.92025 98.5658,-6.95736 99.3965,-6.14551 C100.227,-5.33366 101.285,-4.92773 102.568,-4.92773 C104.003,-4.92773 105.372,-5.39974 106.675,-6.34375 C107.638,-7.0612 108.27,-7.93913 108.572,-8.97754 C108.78,-9.65723 108.884,-10.9505 108.884,-12.8574 L108.884,-14.4434 M124.068,-30.0762 L131.403,-30.0762 L131.403,-25.9697 C134.028,-29.1605 137.152,-30.7559 140.777,-30.7559 C142.703,-30.7559 144.374,-30.3594 145.79,-29.5664 C147.206,-28.7734 148.367,-27.5745 149.273,-25.9697 C150.595,-27.5745 152.021,-28.7734 153.55,-29.5664 C155.079,-30.3594 156.712,-30.7559 158.449,-30.7559 C160.658,-30.7559 162.527,-30.3075 164.057,-29.4106 C165.586,-28.5138 166.728,-27.1969 167.483,-25.46 C168.031,-24.1761 168.305,-22.0993 168.305,-19.2295 L168.305,0 L160.347,0 L160.347,-17.1904 C160.347,-20.1735 160.073,-22.0993 159.525,-22.9678 C158.789,-24.1006 157.656,-24.667 156.127,-24.667 C155.013,-24.667 153.965,-24.3271 152.983,-23.6475 C152.002,-22.9678 151.294,-21.9718 150.859,-20.6597 C150.425,-19.3475 150.208,-17.2754 150.208,-14.4434 L150.208,0 L142.25,0 L142.25,-16.4824 C142.25,-19.4089 142.108,-21.2969 141.825,-22.1465 C141.542,-22.9961 141.103,-23.6286 140.508,-24.0439 C139.914,-24.4593 139.106,-24.667 138.087,-24.667 C136.86,-24.667 135.755,-24.3366 134.773,-23.6758 C133.792,-23.015 133.088,-22.0615 132.664,-20.8154 C132.239,-19.5693 132.026,-17.502 132.026,-14.6133 L132.026,0 L124.068,0 L124.068,-30.0762 M182.985,-20.9004 L175.764,-22.2031 C176.576,-25.1107 177.973,-27.263 179.955,-28.6602 C181.938,-30.0573 184.883,-30.7559 188.791,-30.7559 C192.34,-30.7559 194.984,-30.3358 196.721,-29.4956 C198.458,-28.6554 199.68,-27.5887 200.388,-26.2954 C201.096,-25.0021 201.45,-22.6279 201.45,-19.1729 L201.365,-9.88379 C201.365,-7.24056 201.493,-5.29118 201.748,-4.03564 C202.002,-2.78011 202.479,-1.4349 203.178,0 L195.305,0 C195.097,-0.528646 194.842,-1.31217 194.54,-2.35059 C194.408,-2.82259 194.313,-3.13411 194.257,-3.28516 C192.897,-1.96354 191.444,-0.972331 189.896,-0.311523 C188.347,0.349284 186.695,0.679688 184.939,0.679688 C181.843,0.679688 179.403,-0.160482 177.619,-1.84082 C175.834,-3.52116 174.942,-5.64518 174.942,-8.21289 C174.942,-9.91211 175.348,-11.4272 176.16,-12.7583 C176.972,-14.0894 178.11,-15.1089 179.573,-15.8169 C181.036,-16.5249 183.146,-17.1432 185.902,-17.6719 C189.622,-18.3704 192.199,-19.0218 193.634,-19.626 L193.634,-20.4189 C193.634,-21.9482 193.256,-23.0386 192.501,-23.6899 C191.746,-24.3413 190.32,-24.667 188.225,-24.667 C186.809,-24.667 185.704,-24.3885 184.911,-23.8315 C184.118,-23.2746 183.476,-22.2975 182.985,-20.9004 M193.634,-14.4434 C192.614,-14.1035 191,-13.6976 188.791,-13.2256 C186.582,-12.7536 185.138,-12.291 184.458,-11.8379 C183.42,-11.1016 182.9,-10.167 182.9,-9.03418 C182.9,-7.92025 183.316,-6.95736 184.146,-6.14551 C184.977,-5.33366 186.035,-4.92773 187.318,-4.92773 C188.753,-4.92773 190.122,-5.39974 191.425,-6.34375 C192.388,-7.0612 193.02,-7.93913 193.322,-8.97754 C193.53,-9.65723 193.634,-10.9505 193.634,-12.8574 L193.634,-14.4434 M236.771,0 L228.813,0 L228.813,-15.3496 C228.813,-18.597 228.643,-20.6974 228.303,-21.6509 C227.963,-22.6043 227.411,-23.3454 226.646,-23.874 C225.881,-24.4027 224.961,-24.667 223.885,-24.667 C222.507,-24.667 221.27,-24.2894 220.175,-23.5342 C219.08,-22.779 218.329,-21.7783 217.923,-20.5322 C217.517,-19.2861 217.314,-16.9827 217.314,-13.6221 L217.314,0 L209.356,0 L209.356,-30.0762 L216.748,-30.0762 L216.748,-25.6582 C219.372,-29.0566 222.676,-30.7559 226.66,-30.7559 C228.416,-30.7559 230.021,-30.4396 231.475,-29.8071 C232.928,-29.1746 234.028,-28.3675 234.774,-27.3857 C235.52,-26.404 236.039,-25.29 236.332,-24.0439 C236.624,-22.7979 236.771,-21.0137 236.771,-18.6914 L236.771,0 M271.013,-21.1836 L263.168,-19.7676 C262.904,-21.3346 262.304,-22.5146 261.37,-23.3076 C260.435,-24.1006 259.222,-24.4971 257.73,-24.4971 C255.748,-24.4971 254.167,-23.8127 252.987,-22.4438 C251.807,-21.075 251.217,-18.7858 251.217,-15.5762 C251.217,-12.0078 251.816,-9.4873 253.015,-8.01465 C254.214,-6.54199 255.824,-5.80566 257.844,-5.80566 C259.354,-5.80566 260.591,-6.23519 261.554,-7.09424 C262.517,-7.95329 263.196,-9.43066 263.593,-11.5264 L271.409,-10.1953 C270.597,-6.60807 269.04,-3.89876 266.736,-2.06738 C264.433,-0.236003 261.346,0.679688 257.476,0.679688 C253.076,0.679688 249.569,-0.708008 246.955,-3.4834 C244.34,-6.25879 243.032,-10.1009 243.032,-15.0098 C243.032,-19.9753 244.344,-23.841 246.969,-26.6069 C249.593,-29.3729 253.143,-30.7559 257.617,-30.7559 C261.28,-30.7559 264.192,-29.9676 266.354,-28.3911 C268.516,-26.8146 270.069,-24.4121 271.013,-21.1836 M283.11,-20.9004 L275.889,-22.2031 C276.701,-25.1107 278.098,-27.263 280.08,-28.6602 C282.063,-30.0573 285.008,-30.7559 288.916,-30.7559 C292.465,-30.7559 295.109,-30.3358 296.846,-29.4956 C298.583,-28.6554 299.805,-27.5887 300.513,-26.2954 C301.221,-25.0021 301.575,-22.6279 301.575,-19.1729 L301.49,-9.88379 C301.49,-7.24056 301.618,-5.29118 301.873,-4.03564 C302.127,-2.78011 302.604,-1.4349 303.303,0 L295.43,0 C295.222,-0.528646 294.967,-1.31217 294.665,-2.35059 C294.533,-2.82259 294.438,-3.13411 294.382,-3.28516 C293.022,-1.96354 291.569,-0.972331 290.021,-0.311523 C288.472,0.349284 286.82,0.679688 285.064,0.679688 C281.968,0.679688 279.528,-0.160482 277.744,-1.84082 C275.959,-3.52116 275.067,-5.64518 275.067,-8.21289 C275.067,-9.91211 275.473,-11.4272 276.285,-12.7583 C277.097,-14.0894 278.235,-15.1089 279.698,-15.8169 C281.161,-16.5249 283.271,-17.1432 286.027,-17.6719 C289.747,-18.3704 292.324,-19.0218 293.759,-19.626 L293.759,-20.4189 C293.759,-21.9482 293.381,-23.0386 292.626,-23.6899 C291.871,-24.3413 290.445,-24.667 288.35,-24.667 C286.934,-24.667 285.829,-24.3885 285.036,-23.8315 C284.243,-23.2746 283.601,-22.2975 283.11,-20.9004 M293.759,-14.4434 C292.739,-14.1035 291.125,-13.6976 288.916,-13.2256 C286.707,-12.7536 285.263,-12.291 284.583,-11.8379 C283.545,-11.1016 283.025,-10.167 283.025,-9.03418 C283.025,-7.92025 283.441,-6.95736 284.271,-6.14551 C285.102,-5.33366 286.16,-4.92773 287.443,-4.92773 C288.878,-4.92773 290.247,-5.39974 291.55,-6.34375 C292.513,-7.0612 293.145,-7.93913 293.447,-8.97754 C293.655,-9.65723 293.759,-10.9505 293.759,-12.8574 L293.759,-14.4434"/>
  </g>
  <g font-family="MS Shell Dlg 2" fill="none" stroke-opacity="1" stroke="#000000" stroke-linejoin="bevel" stroke-linecap="square" font-style="normal" font-size="34.375" stroke-width="1" font-weight="400" transform="matrix(0.31992,0,0,0.31992,1376.45,1614.53)"/>
  <g font-family="MS Shell Dlg 2" fill="none" stroke-opacity="1" stroke="#000000" stroke-linejoin="bevel" stroke-linecap="square" font-style="normal" font-size="34.375" stroke-width="1" font-weight="400" transform="matrix(0.999751,0,0,0.999751,1376.45,1614.53)"/>
  <g font-family="MS Shell Dlg 2" fill="none" stroke-opacity="1" stroke="#000000" stroke-linejoin="bevel" stroke-linecap="square" font-style="normal" font-size="34.375" stroke-width="1" font-weight="400" transform="matrix(0.999751,0,0,0.999751,0,0)"/>
  <g font-family="Arial" fill="none" stroke-opacity="1" stroke="#323232" stroke-linejoin="bevel" stroke-linecap="square" font-style="normal" font-size="58" stroke-width="1" font-weight="700" transform="matrix(0.999751,0,0,0.999751,1376.45,1614.53)">
   <text font-family="Arial" fill="#323232" fill-opacity="1" x="0" y="0" stroke="none" font-style="normal" font-size="58" font-weight="700" xml:space="preserve">Salamanca</text>
  </g>
  <g font-family="MS Shell Dlg 2" fill="none" stroke-opacity="1" stroke="#000000" stroke-linejoin="bevel" stroke-linecap="square" font-style="normal" font-size="34.375" stroke-width="1" font-weight="400" transform="matrix(0.999751,0,0,0.999751,0,0)"/>
  <g font-family="MS Shell Dlg 2" fill="none" stroke-opacity="1" stroke="#000000" stroke-linejoin="bevel" stroke-linecap="square" font-style="normal" font-size="34.375" stroke-width="1" font-weight="400" transform="matrix(11.8081,0,0,11.8081,0,0)"/>
  <g font-family="MS Shell Dlg 2" fill="none" stroke-opacity="1" stroke="#000000" stroke-linejoin="bevel" stroke-linecap="square" font-style="normal" font-size="34.375" stroke-width="1" font-weight="400" transform="matrix(11.8081,0,0,11.8081,0,0)"/>
  <g font-family="MS Shell Dlg 2" fill="none" stroke-opacity="1" stroke="#000000" stroke-linejoin="bevel" stroke-linecap="square" font-style="normal" font-size="34.375" stroke-width="1" font-weight="400" transform="matrix(11.8081,0,0,11.8081,0,0)"/>
  <g font-family="MS Shell Dlg 2" fill="none" stroke-opacity="1" stroke="#000000" stroke-linejoin="bevel" stroke-linecap="square" font-style="normal" font-size="34.375" stroke-width="1" font-weight="400" transform="matrix(1,0,0,1,0,0)"/>
  <g font-family="MS Shell Dlg 2" fill="none" stroke-opacity="1" stroke="#000000" stroke-linejoin="bevel" stroke-linecap="square" font-style="normal" font-size="34.375" stroke-width="1" font-weight="400" transform="matrix(11.8081,0,0,11.8081,0,0)"/>
  <g font-family="MS Shell Dlg 2" fill="none" stroke-opacity="1" stroke="#000000" stroke-linejoin="bevel" stroke-linecap="square" font-style="normal" font-size="34.375" stroke-width="1" font-weight="400" transform="matrix(11.8081,0,0,11.8081,0,0)"/>
  <g font-family="MS Shell Dlg 2" fill="none" stroke-opacity="1" stroke="#000000" stroke-linejoin="bevel" stroke-linecap="square" font-style="normal" font-size="34.375" stroke-width="1" font-weight="400" transform="matrix(1,0,0,1,0,0)"/>
 </g>
 <defs/>
 <g id="Barra de escala" fill="none" inkscape:label="Barra de escala" stroke="black" stroke-linejoin="bevel" inkscape:groupmode="layer" stroke-linecap="square" fill-rule="evenodd" stroke-width="1">
  <g font-family="MS Shell Dlg 2" fill="none" stroke-opacity="1" stroke="#000000" stroke-linejoin="bevel" stroke-linecap="square" font-style="normal" font-size="34.375" stroke-width="1" font-weight="400" transform="matrix(1,0,0,1,0,0)"/>
  <g font-family="MS Shell Dlg 2" fill="none" stroke-opacity="1" stroke="#000000" stroke-linejoin="bevel" stroke-linecap="square" font-style="normal" font-size="34.375" stroke-width="1" font-weight="400" transform="matrix(1,0,0,1,0,0)"/>
  <g font-family="MS Shell Dlg 2" fill="none" stroke-opacity="1" stroke="#000000" stroke-linejoin="bevel" stroke-linecap="square" font-style="normal" font-size="34.375" stroke-width="1" font-weight="400" transform="matrix(11.8081,0,0,11.8081,132.357,2142.67)"/>
  <g font-family="MS Shell Dlg 2" fill="none" stroke-opacity="1" stroke="#000000" stroke-linejoin="bevel" stroke-linecap="square" font-style="normal" font-size="34.375" stroke-width="1" font-weight="400" transform="matrix(0.999751,0,0,0.999751,132.357,2142.67)"/>
  <g font-family="MS Shell Dlg 2" fill="#000000" fill-opacity="1" stroke="none" font-style="normal" font-size="34.375" font-weight="400" transform="matrix(0.999751,0,0,0.999751,132.357,2142.67)">
   <path vector-effect="none" fill-rule="evenodd" d="M28.8543,97.2441 L286.152,97.2441 L286.152,132.677 L28.8543,132.677 L28.8543,97.2441"/>
  </g>
  <g font-family="MS Shell Dlg 2" fill="#ffffff" fill-opacity="1" stroke="none" font-style="normal" font-size="34.375" font-weight="400" transform="matrix(0.999751,0,0,0.999751,132.357,2142.67)">
   <path vector-effect="none" fill-rule="evenodd" d="M286.152,97.2441 L543.45,97.2441 L543.45,132.677 L286.152,132.677 L286.152,97.2441"/>
  </g>
  <g font-family="MS Shell Dlg 2" fill="none" stroke-opacity="1" stroke="#000000" stroke-linejoin="miter" stroke-linecap="square" stroke-miterlimit="2" font-style="normal" font-size="34.375" stroke-width="3.54331" font-weight="400" transform="matrix(0.999751,0,0,0.999751,132.357,2142.67)">
   <path vector-effect="none" fill-rule="evenodd" d="M286.152,97.2441 L286.152,132.677"/>
   <path vector-effect="none" fill-rule="evenodd" d="M28.8543,97.2441 L543.45,97.2441 L543.45,132.677 L28.8543,132.677 L28.8543,97.2441"/>
  </g>
  <g font-family="MS Shell Dlg 2" fill="none" stroke-opacity="1" stroke="#000000" stroke-linejoin="bevel" stroke-linecap="square" font-style="normal" font-size="34.375" stroke-width="1" font-weight="400" transform="matrix(0.999751,0,0,0.999751,132.357,2142.67)"/>
  <g font-family="MS Shell Dlg 2" fill="none" stroke-opacity="1" stroke="#000000" stroke-linejoin="bevel" stroke-linecap="square" font-style="normal" font-size="50" stroke-width="1" font-weight="400" transform="matrix(0.999751,0,0,0.999751,147.707,2204.47)">
   <text font-family="MS Shell Dlg 2" fill="#000000" fill-opacity="1" x="0" y="0" stroke="none" font-style="normal" font-size="50" font-weight="400" xml:space="preserve">0</text>
  </g>
  <g font-family="MS Shell Dlg 2" fill="none" stroke-opacity="1" stroke="#000000" stroke-linejoin="bevel" stroke-linecap="square" font-style="normal" font-size="34.375" stroke-width="1" font-weight="400" transform="matrix(0.999751,0,0,0.999751,132.357,2142.67)"/>
  <g font-family="MS Shell Dlg 2" fill="none" stroke-opacity="1" stroke="#000000" stroke-linejoin="bevel" stroke-linecap="square" font-style="normal" font-size="50" stroke-width="1" font-weight="400" transform="matrix(0.999751,0,0,0.999751,391.444,2204.47)">
   <text font-family="MS Shell Dlg 2" fill="#000000" fill-opacity="1" x="0" y="0" stroke="none" font-style="normal" font-size="50" font-weight="400" xml:space="preserve">25</text>
  </g>
  <g font-family="MS Shell Dlg 2" fill="none" stroke-opacity="1" stroke="#000000" stroke-linejoin="bevel" stroke-linecap="square" font-style="normal" font-size="34.375" stroke-width="1" font-weight="400" transform="matrix(0.999751,0,0,0.999751,132.357,2142.67)"/>
  <g font-family="MS Shell Dlg 2" fill="none" stroke-opacity="1" stroke="#000000" stroke-linejoin="bevel" stroke-linecap="square" font-style="normal" font-size="50" stroke-width="1" font-weight="400" transform="matrix(0.999751,0,0,0.999751,648.678,2204.47)">
   <text font-family="MS Shell Dlg 2" fill="#000000" fill-opacity="1" x="0" y="0" stroke="none" font-style="normal" font-size="50" font-weight="400" xml:space="preserve">50 km</text>
  </g>
  <g font-family="MS Shell Dlg 2" fill="none" stroke-opacity="1" stroke="#000000" stroke-linejoin="bevel" stroke-linecap="square" font-style="normal" font-size="34.375" stroke-width="1" font-weight="400" transform="matrix(0.999751,0,0,0.999751,132.357,2142.67)"/>
  <g font-family="MS Shell Dlg 2" fill="none" stroke-opacity="1" stroke="#000000" stroke-linejoin="bevel" stroke-linecap="square" font-style="normal" font-size="34.375" stroke-width="1" font-weight="400" transform="matrix(0.999751,0,0,0.999751,132.357,2142.67)"/>
  <g font-family="MS Shell Dlg 2" fill="none" stroke-opacity="1" stroke="#000000" stroke-linejoin="bevel" stroke-linecap="square" font-style="normal" font-size="34.375" stroke-width="1" font-weight="400" transform="matrix(11.8081,0,0,11.8081,132.357,2142.67)"/>
  <g font-family="MS Shell Dlg 2" fill="none" stroke-opacity="1" stroke="#000000" stroke-linejoin="bevel" stroke-linecap="square" font-style="normal" font-size="34.375" stroke-width="1" font-weight="400" transform="matrix(11.8081,0,0,11.8081,132.357,2142.67)"/>
  <g font-family="MS Shell Dlg 2" fill="none" stroke-opacity="1" stroke="#000000" stroke-linejoin="bevel" stroke-linecap="square" font-style="normal" font-size="34.375" stroke-width="1" font-weight="400" transform="matrix(1,0,0,1,0,0)"/>
 </g>
 <defs/>
 <g id="Flecha del Norte" fill="none" inkscape:label="Flecha del Norte" stroke="black" stroke-linejoin="bevel" inkscape:groupmode="layer" stroke-linecap="square" fill-rule="evenodd" stroke-width="1">
  <g font-family="MS Shell Dlg 2" fill="none" stroke-opacity="1" stroke="#000000" stroke-linejoin="bevel" stroke-linecap="square" font-style="normal" font-size="34.375" stroke-width="1" font-weight="400" transform="matrix(1,0,0,1,0,0)"/>
  <g font-family="MS Shell Dlg 2" fill="none" stroke-opacity="1" stroke="#000000" stroke-linejoin="bevel" stroke-linecap="square" font-style="normal" font-size="34.375" stroke-width="1" font-weight="400" transform="matrix(1,0,0,1,0,0)"/>
  <g font-family="MS Shell Dlg 2" fill="none" stroke-opacity="1" stroke="#000000" stroke-linejoin="bevel" stroke-linecap="square" font-style="normal" font-size="34.375" stroke-width="1" font-weight="400" transform="matrix(11.8081,0,0,11.8081,173.082,142.538)"/>
  <g font-family="MS Shell Dlg 2" fill="none" stroke-opacity="1" stroke="#000000" stroke-linejoin="bevel" stroke-linecap="square" font-style="normal" font-size="34.375" stroke-width="1" font-weight="400" transform="matrix(0.999751,0,0,0.999751,173.082,142.538)"/>
  <g font-family="MS Shell Dlg 2" fill="none" stroke-opacity="1" stroke="#000000" stroke-linejoin="bevel" stroke-linecap="square" font-style="normal" font-size="34.375" stroke-width="1" font-weight="400" transform="matrix(11.8081,0,0,11.8081,173.082,142.538)"/>
  <g font-family="MS Shell Dlg 2" fill="none" stroke="none" font-style="normal" font-size="34.375" font-weight="400" transform="matrix(4.03705,0,0,4.05692,167.277,267.264)">
   <path vector-effect="none" fill-rule="nonzero" d="M61,35 C61,51.02 48.016,64 32,64 C15.98,64 3,51.016 3,35 C3,18.98 15.984,6 32,6 C48.02,6 61,18.984 61,35 "/>
  </g>
  <g font-family="MS Shell Dlg 2" fill="none" stroke-opacity="1" stroke="#000000" stroke-linejoin="miter" stroke-linecap="butt" stroke-miterlimit="4" font-style="normal" font-size="34.375" stroke-width="3" font-weight="400" transform="matrix(4.03705,0,0,4.05692,167.277,267.264)">
   <path vector-effect="none" fill-rule="nonzero" d="M61,35 C61,51.02 48.016,64 32,64 C15.98,64 3,51.016 3,35 C3,18.98 15.984,6 32,6 C48.02,6 61,18.984 61,35 "/>
  </g>
  <g font-family="MS Shell Dlg 2" fill="none" stroke="none" font-style="normal" font-size="34.375" font-weight="400" transform="matrix(4.0834,0,0,4.05643,166.917,267.28)">
   <path vector-effect="none" fill-rule="nonzero" d="M55,35 C55,47.979 44.479,58.5 31.5,58.5 C18.521,58.5 8,47.979 8,35 C8,22.021 18.521,11.5 31.5,11.5 C44.479,11.5 55,22.021 55,35 "/>
  </g>
  <g font-family="MS Shell Dlg 2" fill="none" stroke-opacity="1" stroke="#000000" stroke-linejoin="miter" stroke-linecap="butt" stroke-miterlimit="4" font-style="normal" font-size="34.375" stroke-width="0.497" font-weight="400" transform="matrix(4.0834,0,0,4.05643,166.917,267.28)">
   <path vector-effect="none" fill-rule="nonzero" d="M55,35 C55,47.979 44.479,58.5 31.5,58.5 C18.521,58.5 8,47.979 8,35 C8,22.021 18.521,11.5 31.5,11.5 C44.479,11.5 55,22.021 55,35 "/>
  </g>
  <g font-family="MS Shell Dlg 2" fill="none" stroke="none" font-style="normal" font-size="34.375" font-weight="400" transform="matrix(4.03705,0,0,4.05692,167.277,267.264)">
   <path vector-effect="none" fill-rule="nonzero" d="M32,35 L32,3"/>
  </g>
  <g font-family="MS Shell Dlg 2" fill="none" stroke-opacity="1" stroke="#000000" stroke-linejoin="miter" stroke-linecap="butt" stroke-miterlimit="4" font-style="normal" font-size="34.375" stroke-width="0.25" font-weight="400" transform="matrix(4.03705,0,0,4.05692,167.277,267.264)">
   <path vector-effect="none" fill-rule="nonzero" d="M32,35 L32,3"/>
  </g>
  <g font-family="MS Shell Dlg 2" fill="#000000" fill-opacity="1" stroke="none" font-style="normal" font-size="34.375" font-weight="400" transform="matrix(4.03705,0,0,4.05692,167.277,267.264)">
   <path vector-effect="none" fill-rule="nonzero" d="M32,-9.453 L60.938,64.373 L31.938,35.373 L2.938,64.373 L32,-9.453"/>
  </g>
  <g font-family="MS Shell Dlg 2" fill="none" stroke-opacity="1" stroke="#000000" stroke-linejoin="miter" stroke-linecap="butt" stroke-miterlimit="4" font-style="normal" font-size="34.375" stroke-width="3" font-weight="400" transform="matrix(4.03705,0,0,4.05692,167.277,267.264)">
   <path vector-effect="none" fill-rule="nonzero" d="M32,-9.453 L60.938,64.373 L31.938,35.373 L2.938,64.373 L32,-9.453"/>
  </g>
  <g font-family="MS Shell Dlg 2" fill="none" stroke="none" font-style="normal" font-size="34.375" font-weight="400" transform="matrix(4.03705,0,0,4.05692,167.277,267.264)">
   <path vector-effect="none" fill-rule="nonzero" d="M32,-9.453 L61,63.997 L32,34.997 L3,63.997 L32,-9.453"/>
  </g>
  <g font-family="MS Shell Dlg 2" fill="none" stroke-opacity="1" stroke="#000000" stroke-linejoin="miter" stroke-linecap="square" stroke-miterlimit="4" font-style="normal" font-size="34.375" stroke-width="1" font-weight="400" transform="matrix(4.03705,0,0,4.05692,167.277,267.264)">
   <path vector-effect="none" fill-rule="nonzero" d="M32,-9.453 L61,63.997 L32,34.997 L3,63.997 L32,-9.453"/>
  </g>
  <g font-family="MS Shell Dlg 2" fill="#000000" fill-opacity="1" stroke-opacity="1" stroke="#000000" stroke-linejoin="bevel" stroke-linecap="square" font-style="normal" font-size="166.667" stroke-width="1" font-weight="400" transform="matrix(1.61482,0,0,1.62277,167.277,267.264)"/>
  <g font-family="MS Shell Dlg 2" fill="#000000" fill-opacity="1" stroke-opacity="1" stroke="#000000" stroke-linejoin="miter" stroke-linecap="butt" stroke-miterlimit="4" font-style="normal" font-size="166.667" stroke-width="1" font-weight="400" transform="matrix(1.61482,0,0,1.62277,167.277,267.264)">
   <path vector-effect="none" fill-rule="nonzero" d="M95.3594,-27.125 L88.3135,-27.125 L67.4297,-67.877 L67.4297,-27.125 L61.5581,-27.125 L61.5581,-74.3833 L70.4766,-74.3833 L89.4878,-36.9639 L89.4878,-74.3833 L95.3594,-74.3833 L95.3594,-27.125"/>
  </g>
  <g font-family="MS Shell Dlg 2" fill="#000000" fill-opacity="1" stroke-opacity="1" stroke="#000000" stroke-linejoin="bevel" stroke-linecap="square" font-style="normal" font-size="166.667" stroke-width="1" font-weight="400" transform="matrix(1.61482,0,0,1.62277,167.277,267.264)"/>
  <g font-family="MS Shell Dlg 2" fill="none" stroke="none" font-style="normal" font-size="34.375" font-weight="400" transform="matrix(4.03705,0,0,4.05692,173.082,127.004)">
   <path vector-effect="none" fill-rule="nonzero" d="M4,92.82 L10.74,88.929"/>
  </g>
  <g font-family="MS Shell Dlg 2" fill="none" stroke-opacity="1" stroke="#000000" stroke-linejoin="miter" stroke-linecap="butt" stroke-miterlimit="4" font-style="normal" font-size="34.375" stroke-width="0.25" font-weight="400" transform="matrix(4.03705,0,0,4.05692,173.082,127.004)">
   <path vector-effect="none" fill-rule="nonzero" d="M4,92.82 L10.74,88.929"/>
  </g>
  <g font-family="MS Shell Dlg 2" fill="none" stroke="none" font-style="normal" font-size="34.375" font-weight="400" transform="matrix(4.03705,0,0,4.05692,173.082,127.004)">
   <path vector-effect="none" fill-rule="nonzero" d="M4.603,90.7 L15,84.7"/>
  </g>
  <g font-family="MS Shell Dlg 2" fill="none" stroke-opacity="1" stroke="#000000" stroke-linejoin="miter" stroke-linecap="butt" stroke-miterlimit="4" font-style="normal" font-size="34.375" stroke-width="0.25" font-weight="400" transform="matrix(4.03705,0,0,4.05692,173.082,127.004)">
   <path vector-effect="none" fill-rule="nonzero" d="M4.603,90.7 L15,84.7"/>
  </g>
  <g font-family="MS Shell Dlg 2" fill="none" stroke="none" font-style="normal" font-size="34.375" font-weight="400" transform="matrix(4.03705,0,0,4.05692,173.082,127.004)">
   <path vector-effect="none" fill-rule="nonzero" d="M3,95.17 L7,92.861"/>
  </g>
  <g font-family="MS Shell Dlg 2" fill="none" stroke-opacity="1" stroke="#000000" stroke-linejoin="miter" stroke-linecap="butt" stroke-miterlimit="4" font-style="normal" font-size="34.375" stroke-width="0.25" font-weight="400" transform="matrix(4.03705,0,0,4.05692,173.082,127.004)">
   <path vector-effect="none" fill-rule="nonzero" d="M3,95.17 L7,92.861"/>
  </g>
  <g font-family="MS Shell Dlg 2" fill="none" stroke="none" font-style="normal" font-size="34.375" font-weight="400" transform="matrix(4.03705,0,0,4.05692,173.082,127.004)">
   <path vector-effect="none" fill-rule="nonzero" d="M5.442,88.45 L19.298,80.45"/>
  </g>
  <g font-family="MS Shell Dlg 2" fill="none" stroke-opacity="1" stroke="#000000" stroke-linejoin="miter" stroke-linecap="butt" stroke-miterlimit="4" font-style="normal" font-size="34.375" stroke-width="0.25" font-weight="400" transform="matrix(4.03705,0,0,4.05692,173.082,127.004)">
   <path vector-effect="none" fill-rule="nonzero" d="M5.442,88.45 L19.298,80.45"/>
  </g>
  <g font-family="MS Shell Dlg 2" fill="none" stroke="none" font-style="normal" font-size="34.375" font-weight="400" transform="matrix(4.03705,0,0,4.05692,173.082,127.004)">
   <path vector-effect="none" fill-rule="nonzero" d="M12,72.26 L30.686,61.448"/>
  </g>
  <g font-family="MS Shell Dlg 2" fill="none" stroke-opacity="1" stroke="#000000" stroke-linejoin="miter" stroke-linecap="butt" stroke-miterlimit="4" font-style="normal" font-size="34.375" stroke-width="0.25" font-weight="400" transform="matrix(4.03705,0,0,4.05692,173.082,127.004)">
   <path vector-effect="none" fill-rule="nonzero" d="M12,72.26 L30.686,61.448"/>
  </g>
  <g font-family="MS Shell Dlg 2" fill="none" stroke="none" font-style="normal" font-size="34.375" font-weight="400" transform="matrix(4.03705,0,0,4.05692,173.082,127.004)">
   <path vector-effect="none" fill-rule="nonzero" d="M14.593,65.45 L30.683,56.159"/>
  </g>
  <g font-family="MS Shell Dlg 2" fill="none" stroke-opacity="1" stroke="#000000" stroke-linejoin="miter" stroke-linecap="butt" stroke-miterlimit="4" font-style="normal" font-size="34.375" stroke-width="0.25" font-weight="400" transform="matrix(4.03705,0,0,4.05692,173.082,127.004)">
   <path vector-effect="none" fill-rule="nonzero" d="M14.593,65.45 L30.683,56.159"/>
  </g>
  <g font-family="MS Shell Dlg 2" fill="none" stroke="none" font-style="normal" font-size="34.375" font-weight="400" transform="matrix(4.03705,0,0,4.05692,173.082,127.004)">
   <path vector-effect="none" fill-rule="nonzero" d="M15.343,63.24 L30.686,54.382"/>
  </g>
  <g font-family="MS Shell Dlg 2" fill="none" stroke-opacity="1" stroke="#000000" stroke-linejoin="miter" stroke-linecap="butt" stroke-miterlimit="4" font-style="normal" font-size="34.375" stroke-width="0.25" font-weight="400" transform="matrix(4.03705,0,0,4.05692,173.082,127.004)">
   <path vector-effect="none" fill-rule="nonzero" d="M15.343,63.24 L30.686,54.382"/>
  </g>
  <g font-family="MS Shell Dlg 2" fill="none" stroke="none" font-style="normal" font-size="34.375" font-weight="400" transform="matrix(4.03705,0,0,4.05692,173.082,127.004)">
   <path vector-effect="none" fill-rule="nonzero" d="M16.877,60.58 L30.686,52.608"/>
  </g>
  <g font-family="MS Shell Dlg 2" fill="none" stroke-opacity="1" stroke="#000000" stroke-linejoin="miter" stroke-linecap="butt" stroke-miterlimit="4" font-style="normal" font-size="34.375" stroke-width="0.25" font-weight="400" transform="matrix(4.03705,0,0,4.05692,173.082,127.004)">
   <path vector-effect="none" fill-rule="nonzero" d="M16.877,60.58 L30.686,52.608"/>
  </g>
  <g font-family="MS Shell Dlg 2" fill="none" stroke="none" font-style="normal" font-size="34.375" font-weight="400" transform="matrix(4.03705,0,0,4.05692,173.082,127.004)">
   <path vector-effect="none" fill-rule="nonzero" d="M17.511,58.45 L30.685,50.844"/>
  </g>
  <g font-family="MS Shell Dlg 2" fill="none" stroke-opacity="1" stroke="#000000" stroke-linejoin="miter" stroke-linecap="butt" stroke-miterlimit="4" font-style="normal" font-size="34.375" stroke-width="0.25" font-weight="400" transform="matrix(4.03705,0,0,4.05692,173.082,127.004)">
   <path vector-effect="none" fill-rule="nonzero" d="M17.511,58.45 L30.685,50.844"/>
  </g>
  <g font-family="MS Shell Dlg 2" fill="none" stroke="none" font-style="normal" font-size="34.375" font-weight="400" transform="matrix(4.03705,0,0,4.05692,173.082,127.004)">
   <path vector-effect="none" fill-rule="nonzero" d="M18.412,56.15 L30.686,49.063"/>
  </g>
  <g font-family="MS Shell Dlg 2" fill="none" stroke-opacity="1" stroke="#000000" stroke-linejoin="miter" stroke-linecap="butt" stroke-miterlimit="4" font-style="normal" font-size="34.375" stroke-width="0.25" font-weight="400" transform="matrix(4.03705,0,0,4.05692,173.082,127.004)">
   <path vector-effect="none" fill-rule="nonzero" d="M18.412,56.15 L30.686,49.063"/>
  </g>
  <g font-family="MS Shell Dlg 2" fill="none" stroke="none" font-style="normal" font-size="34.375" font-weight="400" transform="matrix(4.03705,0,0,4.05692,173.082,127.004)">
   <path vector-effect="none" fill-rule="nonzero" d="M19,54.04 L30.427,47.443"/>
  </g>
  <g font-family="MS Shell Dlg 2" fill="none" stroke-opacity="1" stroke="#000000" stroke-linejoin="miter" stroke-linecap="butt" stroke-miterlimit="4" font-style="normal" font-size="34.375" stroke-width="0.25" font-weight="400" transform="matrix(4.03705,0,0,4.05692,173.082,127.004)">
   <path vector-effect="none" fill-rule="nonzero" d="M19,54.04 L30.427,47.443"/>
  </g>
  <g font-family="MS Shell Dlg 2" fill="none" stroke="none" font-style="normal" font-size="34.375" font-weight="400" transform="matrix(4.03705,0,0,4.05692,173.082,127.004)">
   <path vector-effect="none" fill-rule="nonzero" d="M20,51.757 L30.822,45.446"/>
  </g>
  <g font-family="MS Shell Dlg 2" fill="none" stroke-opacity="1" stroke="#000000" stroke-linejoin="miter" stroke-linecap="butt" stroke-miterlimit="4" font-style="normal" font-size="34.375" stroke-width="0.25" font-weight="400" transform="matrix(4.03705,0,0,4.05692,173.082,127.004)">
   <path vector-effect="none" fill-rule="nonzero" d="M20,51.757 L30.822,45.446"/>
  </g>
  <g font-family="MS Shell Dlg 2" fill="none" stroke="none" font-style="normal" font-size="34.375" font-weight="400" transform="matrix(4.03705,0,0,4.05692,173.082,127.004)">
   <path vector-effect="none" fill-rule="nonzero" d="M20.826,49.45 L30.686,43.757"/>
  </g>
  <g font-family="MS Shell Dlg 2" fill="none" stroke-opacity="1" stroke="#000000" stroke-linejoin="miter" stroke-linecap="butt" stroke-miterlimit="4" font-style="normal" font-size="34.375" stroke-width="0.25" font-weight="400" transform="matrix(4.03705,0,0,4.05692,173.082,127.004)">
   <path vector-effect="none" fill-rule="nonzero" d="M20.826,49.45 L30.686,43.757"/>
  </g>
  <g font-family="MS Shell Dlg 2" fill="none" stroke="none" font-style="normal" font-size="34.375" font-weight="400" transform="matrix(4.03705,0,0,4.05692,173.082,127.004)">
   <path vector-effect="none" fill-rule="nonzero" d="M21.48,47.3 L30.686,41.985"/>
  </g>
  <g font-family="MS Shell Dlg 2" fill="none" stroke-opacity="1" stroke="#000000" stroke-linejoin="miter" stroke-linecap="butt" stroke-miterlimit="4" font-style="normal" font-size="34.375" stroke-width="0.25" font-weight="400" transform="matrix(4.03705,0,0,4.05692,173.082,127.004)">
   <path vector-effect="none" fill-rule="nonzero" d="M21.48,47.3 L30.686,41.985"/>
  </g>
  <g font-family="MS Shell Dlg 2" fill="none" stroke="none" font-style="normal" font-size="34.375" font-weight="400" transform="matrix(4.03705,0,0,4.05692,173.082,127.004)">
   <path vector-effect="none" fill-rule="nonzero" d="M23,44.647 L30.686,40.21"/>
  </g>
  <g font-family="MS Shell Dlg 2" fill="none" stroke-opacity="1" stroke="#000000" stroke-linejoin="miter" stroke-linecap="butt" stroke-miterlimit="4" font-style="normal" font-size="34.375" stroke-width="0.25" font-weight="400" transform="matrix(4.03705,0,0,4.05692,173.082,127.004)">
   <path vector-effect="none" fill-rule="nonzero" d="M23,44.647 L30.686,40.21"/>
  </g>
  <g font-family="MS Shell Dlg 2" fill="none" stroke="none" font-style="normal" font-size="34.375" font-weight="400" transform="matrix(4.03705,0,0,4.05692,173.082,127.004)">
   <path vector-effect="none" fill-rule="nonzero" d="M23.744,42.45 L30.672,38.45"/>
  </g>
  <g font-family="MS Shell Dlg 2" fill="none" stroke-opacity="1" stroke="#000000" stroke-linejoin="miter" stroke-linecap="butt" stroke-miterlimit="4" font-style="normal" font-size="34.375" stroke-width="0.25" font-weight="400" transform="matrix(4.03705,0,0,4.05692,173.082,127.004)">
   <path vector-effect="none" fill-rule="nonzero" d="M23.744,42.45 L30.672,38.45"/>
  </g>
  <g font-family="MS Shell Dlg 2" fill="none" stroke="none" font-style="normal" font-size="34.375" font-weight="400" transform="matrix(4.03705,0,0,4.05692,173.082,127.004)">
   <path vector-effect="none" fill-rule="nonzero" d="M24.549,40.21 L30.686,36.667"/>
  </g>
  <g font-family="MS Shell Dlg 2" fill="none" stroke-opacity="1" stroke="#000000" stroke-linejoin="miter" stroke-linecap="butt" stroke-miterlimit="4" font-style="normal" font-size="34.375" stroke-width="0.25" font-weight="400" transform="matrix(4.03705,0,0,4.05692,173.082,127.004)">
   <path vector-effect="none" fill-rule="nonzero" d="M24.549,40.21 L30.686,36.667"/>
  </g>
  <g font-family="MS Shell Dlg 2" fill="none" stroke="none" font-style="normal" font-size="34.375" font-weight="400" transform="matrix(4.03705,0,0,4.05692,173.082,127.004)">
   <path vector-effect="none" fill-rule="nonzero" d="M25,38.18 L30.686,34.897"/>
  </g>
  <g font-family="MS Shell Dlg 2" fill="none" stroke-opacity="1" stroke="#000000" stroke-linejoin="miter" stroke-linecap="butt" stroke-miterlimit="4" font-style="normal" font-size="34.375" stroke-width="0.25" font-weight="400" transform="matrix(4.03705,0,0,4.05692,173.082,127.004)">
   <path vector-effect="none" fill-rule="nonzero" d="M25,38.18 L30.686,34.897"/>
  </g>
  <g font-family="MS Shell Dlg 2" fill="none" stroke="none" font-style="normal" font-size="34.375" font-weight="400" transform="matrix(4.03705,0,0,4.05692,173.082,127.004)">
   <path vector-effect="none" fill-rule="nonzero" d="M26.663,35.446 L30.683,33.123"/>
  </g>
  <g font-family="MS Shell Dlg 2" fill="none" stroke-opacity="1" stroke="#000000" stroke-linejoin="miter" stroke-linecap="butt" stroke-miterlimit="4" font-style="normal" font-size="34.375" stroke-width="0.25" font-weight="400" transform="matrix(4.03705,0,0,4.05692,173.082,127.004)">
   <path vector-effect="none" fill-rule="nonzero" d="M26.663,35.446 L30.683,33.123"/>
  </g>
  <g font-family="MS Shell Dlg 2" fill="none" stroke="none" font-style="normal" font-size="34.375" font-weight="400" transform="matrix(4.03705,0,0,4.05692,173.082,127.004)">
   <path vector-effect="none" fill-rule="nonzero" d="M27.617,33.12 L30.686,31.348"/>
  </g>
  <g font-family="MS Shell Dlg 2" fill="none" stroke-opacity="1" stroke="#000000" stroke-linejoin="miter" stroke-linecap="butt" stroke-miterlimit="4" font-style="normal" font-size="34.375" stroke-width="0.25" font-weight="400" transform="matrix(4.03705,0,0,4.05692,173.082,127.004)">
   <path vector-effect="none" fill-rule="nonzero" d="M27.617,33.12 L30.686,31.348"/>
  </g>
  <g font-family="MS Shell Dlg 2" fill="none" stroke="none" font-style="normal" font-size="34.375" font-weight="400" transform="matrix(4.03705,0,0,4.05692,173.082,127.004)">
   <path vector-effect="none" fill-rule="nonzero" d="M28,31.13 L30.686,29.579"/>
  </g>
  <g font-family="MS Shell Dlg 2" fill="none" stroke-opacity="1" stroke="#000000" stroke-linejoin="miter" stroke-linecap="butt" stroke-miterlimit="4" font-style="normal" font-size="34.375" stroke-width="0.25" font-weight="400" transform="matrix(4.03705,0,0,4.05692,173.082,127.004)">
   <path vector-effect="none" fill-rule="nonzero" d="M28,31.13 L30.686,29.579"/>
  </g>
  <g font-family="MS Shell Dlg 2" fill="none" stroke="none" font-style="normal" font-size="34.375" font-weight="400" transform="matrix(4.03705,0,0,4.05692,173.082,127.004)">
   <path vector-effect="none" fill-rule="nonzero" d="M29.15,28.694 L30.684,27.808"/>
  </g>
  <g font-family="MS Shell Dlg 2" fill="none" stroke-opacity="1" stroke="#000000" stroke-linejoin="miter" stroke-linecap="butt" stroke-miterlimit="4" font-style="normal" font-size="34.375" stroke-width="0.25" font-weight="400" transform="matrix(4.03705,0,0,4.05692,173.082,127.004)">
   <path vector-effect="none" fill-rule="nonzero" d="M29.15,28.694 L30.684,27.808"/>
  </g>
  <g font-family="MS Shell Dlg 2" fill="none" stroke="none" font-style="normal" font-size="34.375" font-weight="400" transform="matrix(4.03705,0,0,4.05692,173.082,127.004)">
   <path vector-effect="none" fill-rule="nonzero" d="M13,69.909 L30.686,59.698"/>
  </g>
  <g font-family="MS Shell Dlg 2" fill="none" stroke-opacity="1" stroke="#000000" stroke-linejoin="miter" stroke-linecap="butt" stroke-miterlimit="4" font-style="normal" font-size="34.375" stroke-width="0.25" font-weight="400" transform="matrix(4.03705,0,0,4.05692,173.082,127.004)">
   <path vector-effect="none" fill-rule="nonzero" d="M13,69.909 L30.686,59.698"/>
  </g>
  <g font-family="MS Shell Dlg 2" fill="none" stroke="none" font-style="normal" font-size="34.375" font-weight="400" transform="matrix(4.03705,0,0,4.05692,173.082,127.004)">
   <path vector-effect="none" fill-rule="nonzero" d="M9.206,79.19 L30.686,66.788"/>
  </g>
  <g font-family="MS Shell Dlg 2" fill="none" stroke-opacity="1" stroke="#000000" stroke-linejoin="miter" stroke-linecap="butt" stroke-miterlimit="4" font-style="normal" font-size="34.375" stroke-width="0.25" font-weight="400" transform="matrix(4.03705,0,0,4.05692,173.082,127.004)">
   <path vector-effect="none" fill-rule="nonzero" d="M9.206,79.19 L30.686,66.788"/>
  </g>
  <g font-family="MS Shell Dlg 2" fill="none" stroke="none" font-style="normal" font-size="34.375" font-weight="400" transform="matrix(4.03705,0,0,4.05692,173.082,127.004)">
   <path vector-effect="none" fill-rule="nonzero" d="M8.36,81.45 L30.686,68.56"/>
  </g>
  <g font-family="MS Shell Dlg 2" fill="none" stroke-opacity="1" stroke="#000000" stroke-linejoin="miter" stroke-linecap="butt" stroke-miterlimit="4" font-style="normal" font-size="34.375" stroke-width="0.25" font-weight="400" transform="matrix(4.03705,0,0,4.05692,173.082,127.004)">
   <path vector-effect="none" fill-rule="nonzero" d="M8.36,81.45 L30.686,68.56"/>
  </g>
  <g font-family="MS Shell Dlg 2" fill="none" stroke="none" font-style="normal" font-size="34.375" font-weight="400" transform="matrix(4.03705,0,0,4.05692,173.082,127.004)">
   <path vector-effect="none" fill-rule="nonzero" d="M7.671,83.62 L27.617,72.104"/>
  </g>
  <g font-family="MS Shell Dlg 2" fill="none" stroke-opacity="1" stroke="#000000" stroke-linejoin="miter" stroke-linecap="butt" stroke-miterlimit="4" font-style="normal" font-size="34.375" stroke-width="0.25" font-weight="400" transform="matrix(4.03705,0,0,4.05692,173.082,127.004)">
   <path vector-effect="none" fill-rule="nonzero" d="M7.671,83.62 L27.617,72.104"/>
  </g>
  <g font-family="MS Shell Dlg 2" fill="none" stroke="none" font-style="normal" font-size="34.375" font-weight="400" transform="matrix(4.03705,0,0,4.05692,173.082,127.004)">
   <path vector-effect="none" fill-rule="nonzero" d="M6.137,86.27 L23.157,76.443"/>
  </g>
  <g font-family="MS Shell Dlg 2" fill="none" stroke-opacity="1" stroke="#000000" stroke-linejoin="miter" stroke-linecap="butt" stroke-miterlimit="4" font-style="normal" font-size="34.375" stroke-width="0.25" font-weight="400" transform="matrix(4.03705,0,0,4.05692,173.082,127.004)">
   <path vector-effect="none" fill-rule="nonzero" d="M6.137,86.27 L23.157,76.443"/>
  </g>
  <g font-family="MS Shell Dlg 2" fill="none" stroke="none" font-style="normal" font-size="34.375" font-weight="400" transform="matrix(4.03705,0,0,4.05692,173.082,127.004)">
   <path vector-effect="none" fill-rule="nonzero" d="M10,76.956 L30.686,65.013"/>
  </g>
  <g font-family="MS Shell Dlg 2" fill="none" stroke-opacity="1" stroke="#000000" stroke-linejoin="miter" stroke-linecap="butt" stroke-miterlimit="4" font-style="normal" font-size="34.375" stroke-width="0.25" font-weight="400" transform="matrix(4.03705,0,0,4.05692,173.082,127.004)">
   <path vector-effect="none" fill-rule="nonzero" d="M10,76.956 L30.686,65.013"/>
  </g>
  <g font-family="MS Shell Dlg 2" fill="none" stroke="none" font-style="normal" font-size="34.375" font-weight="400" transform="matrix(4.03705,0,0,4.05692,173.082,127.004)">
   <path vector-effect="none" fill-rule="nonzero" d="M11.279,74.45 L30.686,63.245"/>
  </g>
  <g font-family="MS Shell Dlg 2" fill="none" stroke-opacity="1" stroke="#000000" stroke-linejoin="miter" stroke-linecap="butt" stroke-miterlimit="4" font-style="normal" font-size="34.375" stroke-width="0.25" font-weight="400" transform="matrix(4.03705,0,0,4.05692,173.082,127.004)">
   <path vector-effect="none" fill-rule="nonzero" d="M11.279,74.45 L30.686,63.245"/>
  </g>
  <g font-family="MS Shell Dlg 2" fill="none" stroke="none" font-style="normal" font-size="34.375" font-weight="400" transform="matrix(4.03705,0,0,4.05692,173.082,127.004)">
   <path vector-effect="none" fill-rule="nonzero" d="M14,67.56 L30.686,57.926"/>
  </g>
  <g font-family="MS Shell Dlg 2" fill="none" stroke-opacity="1" stroke="#000000" stroke-linejoin="miter" stroke-linecap="butt" stroke-miterlimit="4" font-style="normal" font-size="34.375" stroke-width="0.25" font-weight="400" transform="matrix(4.03705,0,0,4.05692,173.082,127.004)">
   <path vector-effect="none" fill-rule="nonzero" d="M14,67.56 L30.686,57.926"/>
  </g>
  <g font-family="MS Shell Dlg 2" fill="none" stroke="none" font-style="normal" font-size="34.375" font-weight="400" transform="matrix(4.03705,0,0,4.05692,173.082,142.538)">
   <path vector-effect="none" fill-rule="nonzero" d="M30.562,65.744 L30.562,22.178"/>
  </g>
  <g font-family="MS Shell Dlg 2" fill="none" stroke-opacity="1" stroke="#000000" stroke-linejoin="miter" stroke-linecap="butt" stroke-miterlimit="4" font-style="normal" font-size="34.375" stroke-width="0.25" font-weight="400" transform="matrix(4.03705,0,0,4.05692,173.082,142.538)">
   <path vector-effect="none" fill-rule="nonzero" d="M30.562,65.744 L30.562,22.178"/>
  </g>
  <g font-family="MS Shell Dlg 2" fill="none" stroke-opacity="1" stroke="#000000" stroke-linejoin="bevel" stroke-linecap="square" font-style="normal" font-size="34.375" stroke-width="1" font-weight="400" transform="matrix(11.8081,0,0,11.8081,173.082,142.538)"/>
  <g font-family="MS Shell Dlg 2" fill="none" stroke-opacity="1" stroke="#000000" stroke-linejoin="bevel" stroke-linecap="square" font-style="normal" font-size="34.375" stroke-width="1" font-weight="400" transform="matrix(0.999751,0,0,0.999751,173.082,142.538)"/>
  <g font-family="MS Shell Dlg 2" fill="none" stroke-opacity="1" stroke="#000000" stroke-linejoin="bevel" stroke-linecap="square" font-style="normal" font-size="34.375" stroke-width="1" font-weight="400" transform="matrix(11.8081,0,0,11.8081,173.082,142.538)"/>
  <g font-family="MS Shell Dlg 2" fill="none" stroke-opacity="1" stroke="#000000" stroke-linejoin="bevel" stroke-linecap="square" font-style="normal" font-size="34.375" stroke-width="1" font-weight="400" transform="matrix(11.8081,0,0,11.8081,173.082,142.538)"/>
  <g font-family="MS Shell Dlg 2" fill="none" stroke-opacity="1" stroke="#000000" stroke-linejoin="bevel" stroke-linecap="square" font-style="normal" font-size="34.375" stroke-width="1" font-weight="400" transform="matrix(1,0,0,1,0,0)"/>
 </g>
 <defs/>
 <g id="Legend" fill="none" inkscape:label="Legend" stroke="black" stroke-linejoin="bevel" inkscape:groupmode="layer" stroke-linecap="square" fill-rule="evenodd" stroke-width="1">
  <g font-family="MS Shell Dlg 2" fill="none" stroke-opacity="1" stroke="#000000" stroke-linejoin="bevel" stroke-linecap="square" font-style="normal" font-size="34.375" stroke-width="1" font-weight="400" transform="matrix(1,0,0,1,0,0)"/>
  <g font-family="MS Shell Dlg 2" fill="none" stroke-opacity="1" stroke="#000000" stroke-linejoin="bevel" stroke-linecap="square" font-style="normal" font-size="34.375" stroke-width="1" font-weight="400" transform="matrix(1,0,0,1,0,0)"/>
  <g font-family="MS Shell Dlg 2" fill="none" stroke-opacity="1" stroke="#000000" stroke-linejoin="bevel" stroke-linecap="square" font-style="normal" font-size="34.375" stroke-width="1" font-weight="400" transform="matrix(11.8081,0,0,11.8081,2616.59,1618.82)"/>
  <g font-family="MS Shell Dlg 2" fill="none" stroke-opacity="1" stroke="#000000" stroke-linejoin="bevel" stroke-linecap="square" font-style="normal" font-size="34.375" stroke-width="1" font-weight="400" transform="matrix(11.8081,0,0,11.8081,2616.59,1618.82)"/>
  <g font-family="MS Shell Dlg 2" fill="none" stroke-opacity="1" stroke="#000000" stroke-linejoin="bevel" stroke-linecap="square" font-style="normal" font-size="34.375" stroke-width="1" font-weight="400" transform="matrix(11.8081,0,0,11.8081,2616.59,1618.82)"/>
  <g font-family="MS Shell Dlg 2" fill="#ffffff" fill-opacity="1" stroke="none" font-style="normal" font-size="34.375" font-weight="400" transform="matrix(11.8081,0,0,11.8081,2616.59,1618.82)">
   <path vector-effect="none" fill-rule="evenodd" d="M0,0 L69.9553,0 L69.9553,57.9667 L0,57.9667 L0,0"/>
  </g>
  <g font-family="MS Shell Dlg 2" fill="none" stroke-opacity="1" stroke="#000000" stroke-linejoin="bevel" stroke-linecap="square" font-style="normal" font-size="34.375" stroke-width="1" font-weight="400" transform="matrix(11.8081,0,0,11.8081,2616.59,1618.82)"/>
  <g font-family="MS Shell Dlg 2" fill="none" stroke-opacity="1" stroke="#000000" stroke-linejoin="bevel" stroke-linecap="square" font-style="normal" font-size="34.375" stroke-width="1" font-weight="400" transform="matrix(0.999751,0,0,0.999751,2616.59,1618.82)"/>
  <g font-family="MS Shell Dlg 2" fill="none" stroke-opacity="1" stroke="#000000" stroke-linejoin="bevel" stroke-linecap="square" font-style="normal" font-size="34.375" stroke-width="1" font-weight="400" transform="matrix(0.999751,0,0,0.999751,2616.59,1618.82)"/>
  <g font-family="MS Shell Dlg 2" fill="none" stroke-opacity="1" stroke="#000000" stroke-linejoin="bevel" stroke-linecap="square" font-style="normal" font-size="50" stroke-width="1" font-weight="400" transform="matrix(0.999751,0,0,0.999751,2640.21,1730.26)">
   <text font-family="MS Shell Dlg 2" fill="#000000" fill-opacity="1" x="0" y="0" stroke="none" font-style="normal" font-size="50" font-weight="400" xml:space="preserve">Emisiones totales de SO₂ (ton/año)</text>
  </g>
  <g font-family="MS Shell Dlg 2" fill="none" stroke-opacity="1" stroke="#000000" stroke-linejoin="bevel" stroke-linecap="square" font-style="normal" font-size="34.375" stroke-width="1" font-weight="400" transform="matrix(0.999751,0,0,0.999751,2616.59,1618.82)"/>
  <g font-family="MS Shell Dlg 2" fill="none" stroke-opacity="1" stroke="#000000" stroke-linejoin="bevel" stroke-linecap="square" font-style="normal" font-size="34.375" stroke-width="1" font-weight="400" transform="matrix(0.999751,0,0,0.999751,2616.59,1618.82)"/>
  <g font-family="MS Shell Dlg 2" fill="none" stroke-opacity="1" stroke="#000000" stroke-linejoin="bevel" stroke-linecap="square" font-style="normal" font-size="50" stroke-width="1" font-weight="400" transform="matrix(0.999751,0,0,0.999751,2640.21,1815.67)">
   <text font-family="MS Shell Dlg 2" fill="#000000" fill-opacity="1" x="0" y="0" stroke="none" font-style="normal" font-size="50" font-weight="400" xml:space="preserve"/>
  </g>
  <g font-family="MS Shell Dlg 2" fill="none" stroke-opacity="1" stroke="#000000" stroke-linejoin="bevel" stroke-linecap="square" font-style="normal" font-size="34.375" stroke-width="1" font-weight="400" transform="matrix(0.999751,0,0,0.999751,2616.59,1618.82)"/>
  <g font-family="MS Shell Dlg 2" fill="none" stroke-opacity="1" stroke="#000000" stroke-linejoin="bevel" stroke-linecap="square" font-style="normal" font-size="34.375" stroke-width="1" font-weight="400" transform="matrix(11.8081,0,0,11.8081,2616.59,1618.82)"/>
  <g font-family="MS Shell Dlg 2" fill="#f7fbff" fill-opacity="1" stroke-opacity="1" stroke="#232323" stroke-linejoin="bevel" stroke-linecap="square" font-style="normal" font-size="34.375" stroke-width="6.61417" font-weight="400" transform="matrix(0.999751,0,0,0.999751,2640.21,1848.69)">
   <path vector-effect="none" fill-rule="evenodd" d="M0,0 L83,0 L83,47 L0,47 L0,0"/>
  </g>
  <g font-family="MS Shell Dlg 2" fill="none" stroke-opacity="1" stroke="#000000" stroke-linejoin="bevel" stroke-linecap="square" font-style="normal" font-size="34.375" stroke-width="1" font-weight="400" transform="matrix(11.8081,0,0,11.8081,2616.59,1618.82)"/>
  <g font-family="MS Shell Dlg 2" fill="none" stroke-opacity="1" stroke="#000000" stroke-linejoin="bevel" stroke-linecap="square" font-style="normal" font-size="34.375" stroke-width="1" font-weight="400" transform="matrix(0.999751,0,0,0.999751,2616.59,1618.82)"/>
  <g font-family="MS Shell Dlg 2" fill="none" stroke-opacity="1" stroke="#000000" stroke-linejoin="bevel" stroke-linecap="square" font-style="normal" font-size="50" stroke-width="1" font-weight="400" transform="matrix(0.999751,0,0,0.999751,2746.48,1890.12)">
   <text font-family="MS Shell Dlg 2" fill="#000000" fill-opacity="1" x="0" y="0" stroke="none" font-style="normal" font-size="50" font-weight="400" xml:space="preserve">1 - 1238</text>
  </g>
  <g font-family="MS Shell Dlg 2" fill="none" stroke-opacity="1" stroke="#000000" stroke-linejoin="bevel" stroke-linecap="square" font-style="normal" font-size="34.375" stroke-width="1" font-weight="400" transform="matrix(0.999751,0,0,0.999751,2616.59,1618.82)"/>
  <g font-family="MS Shell Dlg 2" fill="none" stroke-opacity="1" stroke="#000000" stroke-linejoin="bevel" stroke-linecap="square" font-style="normal" font-size="34.375" stroke-width="1" font-weight="400" transform="matrix(11.8081,0,0,11.8081,2616.59,1618.82)"/>
  <g font-family="MS Shell Dlg 2" fill="#d1e2f3" fill-opacity="1" stroke-opacity="1" stroke="#232323" stroke-linejoin="bevel" stroke-linecap="square" font-style="normal" font-size="34.375" stroke-width="6.61417" font-weight="400" transform="matrix(0.999751,0,0,0.999751,2640.21,1925.44)">
   <path vector-effect="none" fill-rule="evenodd" d="M0,0 L83,0 L83,47 L0,47 L0,0"/>
  </g>
  <g font-family="MS Shell Dlg 2" fill="none" stroke-opacity="1" stroke="#000000" stroke-linejoin="bevel" stroke-linecap="square" font-style="normal" font-size="34.375" stroke-width="1" font-weight="400" transform="matrix(11.8081,0,0,11.8081,2616.59,1618.82)"/>
  <g font-family="MS Shell Dlg 2" fill="none" stroke-opacity="1" stroke="#000000" stroke-linejoin="bevel" stroke-linecap="square" font-style="normal" font-size="34.375" stroke-width="1" font-weight="400" transform="matrix(0.999751,0,0,0.999751,2616.59,1618.82)"/>
  <g font-family="MS Shell Dlg 2" fill="none" stroke-opacity="1" stroke="#000000" stroke-linejoin="bevel" stroke-linecap="square" font-style="normal" font-size="50" stroke-width="1" font-weight="400" transform="matrix(0.999751,0,0,0.999751,2746.48,1967.1)">
   <text font-family="MS Shell Dlg 2" fill="#000000" fill-opacity="1" x="0" y="0" stroke="none" font-style="normal" font-size="50" font-weight="400" xml:space="preserve">1238 - 2476</text>
  </g>
  <g font-family="MS Shell Dlg 2" fill="none" stroke-opacity="1" stroke="#000000" stroke-linejoin="bevel" stroke-linecap="square" font-style="normal" font-size="34.375" stroke-width="1" font-weight="400" transform="matrix(0.999751,0,0,0.999751,2616.59,1618.82)"/>
  <g font-family="MS Shell Dlg 2" fill="none" stroke-opacity="1" stroke="#000000" stroke-linejoin="bevel" stroke-linecap="square" font-style="normal" font-size="34.375" stroke-width="1" font-weight="400" transform="matrix(11.8081,0,0,11.8081,2616.59,1618.82)"/>
  <g font-family="MS Shell Dlg 2" fill="#9ac8e0" fill-opacity="1" stroke-opacity="1" stroke="#232323" stroke-linejoin="bevel" stroke-linecap="square" font-style="normal" font-size="34.375" stroke-width="6.61417" font-weight="400" transform="matrix(0.999751,0,0,0.999751,2640.21,2002.19)">
   <path vector-effect="none" fill-rule="evenodd" d="M0,0 L83,0 L83,47 L0,47 L0,0"/>
  </g>
  <g font-family="MS Shell Dlg 2" fill="none" stroke-opacity="1" stroke="#000000" stroke-linejoin="bevel" stroke-linecap="square" font-style="normal" font-size="34.375" stroke-width="1" font-weight="400" transform="matrix(11.8081,0,0,11.8081,2616.59,1618.82)"/>
  <g font-family="MS Shell Dlg 2" fill="none" stroke-opacity="1" stroke="#000000" stroke-linejoin="bevel" stroke-linecap="square" font-style="normal" font-size="34.375" stroke-width="1" font-weight="400" transform="matrix(0.999751,0,0,0.999751,2616.59,1618.82)"/>
  <g font-family="MS Shell Dlg 2" fill="none" stroke-opacity="1" stroke="#000000" stroke-linejoin="bevel" stroke-linecap="square" font-style="normal" font-size="50" stroke-width="1" font-weight="400" transform="matrix(0.999751,0,0,0.999751,2746.48,2044.08)">
   <text font-family="MS Shell Dlg 2" fill="#000000" fill-opacity="1" x="0" y="0" stroke="none" font-style="normal" font-size="50" font-weight="400" xml:space="preserve">2476 - 3714</text>
  </g>
  <g font-family="MS Shell Dlg 2" fill="none" stroke-opacity="1" stroke="#000000" stroke-linejoin="bevel" stroke-linecap="square" font-style="normal" font-size="34.375" stroke-width="1" font-weight="400" transform="matrix(0.999751,0,0,0.999751,2616.59,1618.82)"/>
  <g font-family="MS Shell Dlg 2" fill="none" stroke-opacity="1" stroke="#000000" stroke-linejoin="bevel" stroke-linecap="square" font-style="normal" font-size="34.375" stroke-width="1" font-weight="400" transform="matrix(11.8081,0,0,11.8081,2616.59,1618.82)"/>
  <g font-family="MS Shell Dlg 2" fill="#529dcc" fill-opacity="1" stroke-opacity="1" stroke="#232323" stroke-linejoin="bevel" stroke-linecap="square" font-style="normal" font-size="34.375" stroke-width="6.61417" font-weight="400" transform="matrix(0.999751,0,0,0.999751,2640.21,2078.95)">
   <path vector-effect="none" fill-rule="evenodd" d="M0,0 L83,0 L83,47 L0,47 L0,0"/>
  </g>
  <g font-family="MS Shell Dlg 2" fill="none" stroke-opacity="1" stroke="#000000" stroke-linejoin="bevel" stroke-linecap="square" font-style="normal" font-size="34.375" stroke-width="1" font-weight="400" transform="matrix(11.8081,0,0,11.8081,2616.59,1618.82)"/>
  <g font-family="MS Shell Dlg 2" fill="none" stroke-opacity="1" stroke="#000000" stroke-linejoin="bevel" stroke-linecap="square" font-style="normal" font-size="34.375" stroke-width="1" font-weight="400" transform="matrix(0.999751,0,0,0.999751,2616.59,1618.82)"/>
  <g font-family="MS Shell Dlg 2" fill="none" stroke-opacity="1" stroke="#000000" stroke-linejoin="bevel" stroke-linecap="square" font-style="normal" font-size="50" stroke-width="1" font-weight="400" transform="matrix(0.999751,0,0,0.999751,2746.48,2121.06)">
   <text font-family="MS Shell Dlg 2" fill="#000000" fill-opacity="1" x="0" y="0" stroke="none" font-style="normal" font-size="50" font-weight="400" xml:space="preserve">3714 - 4951</text>
  </g>
  <g font-family="MS Shell Dlg 2" fill="none" stroke-opacity="1" stroke="#000000" stroke-linejoin="bevel" stroke-linecap="square" font-style="normal" font-size="34.375" stroke-width="1" font-weight="400" transform="matrix(0.999751,0,0,0.999751,2616.59,1618.82)"/>
  <g font-family="MS Shell Dlg 2" fill="none" stroke-opacity="1" stroke="#000000" stroke-linejoin="bevel" stroke-linecap="square" font-style="normal" font-size="34.375" stroke-width="1" font-weight="400" transform="matrix(11.8081,0,0,11.8081,2616.59,1618.82)"/>
  <g font-family="MS Shell Dlg 2" fill="#1d6cb1" fill-opacity="1" stroke-opacity="1" stroke="#232323" stroke-linejoin="bevel" stroke-linecap="square" font-style="normal" font-size="34.375" stroke-width="6.61417" font-weight="400" transform="matrix(0.999751,0,0,0.999751,2640.21,2155.7)">
   <path vector-effect="none" fill-rule="evenodd" d="M0,0 L83,0 L83,47 L0,47 L0,0"/>
  </g>
  <g font-family="MS Shell Dlg 2" fill="none" stroke-opacity="1" stroke="#000000" stroke-linejoin="bevel" stroke-linecap="square" font-style="normal" font-size="34.375" stroke-width="1" font-weight="400" transform="matrix(11.8081,0,0,11.8081,2616.59,1618.82)"/>
  <g font-family="MS Shell Dlg 2" fill="none" stroke-opacity="1" stroke="#000000" stroke-linejoin="bevel" stroke-linecap="square" font-style="normal" font-size="34.375" stroke-width="1" font-weight="400" transform="matrix(0.999751,0,0,0.999751,2616.59,1618.82)"/>
  <g font-family="MS Shell Dlg 2" fill="none" stroke-opacity="1" stroke="#000000" stroke-linejoin="bevel" stroke-linecap="square" font-style="normal" font-size="50" stroke-width="1" font-weight="400" transform="matrix(0.999751,0,0,0.999751,2746.48,2197.04)">
   <text font-family="MS Shell Dlg 2" fill="#000000" fill-opacity="1" x="0" y="0" stroke="none" font-style="normal" font-size="50" font-weight="400" xml:space="preserve">4951 - 6189</text>
  </g>
  <g font-family="MS Shell Dlg 2" fill="none" stroke-opacity="1" stroke="#000000" stroke-linejoin="bevel" stroke-linecap="square" font-style="normal" font-size="34.375" stroke-width="1" font-weight="400" transform="matrix(0.999751,0,0,0.999751,2616.59,1618.82)"/>
  <g font-family="MS Shell Dlg 2" fill="none" stroke-opacity="1" stroke="#000000" stroke-linejoin="bevel" stroke-linecap="square" font-style="normal" font-size="34.375" stroke-width="1" font-weight="400" transform="matrix(11.8081,0,0,11.8081,2616.59,1618.82)"/>
  <g font-family="MS Shell Dlg 2" fill="#08306b" fill-opacity="1" stroke-opacity="1" stroke="#232323" stroke-linejoin="bevel" stroke-linecap="square" font-style="normal" font-size="34.375" stroke-width="6.61417" font-weight="400" transform="matrix(0.999751,0,0,0.999751,2640.21,2232.45)">
   <path vector-effect="none" fill-rule="evenodd" d="M0,0 L83,0 L83,47 L0,47 L0,0"/>
  </g>
  <g font-family="MS Shell Dlg 2" fill="none" stroke-opacity="1" stroke="#000000" stroke-linejoin="bevel" stroke-linecap="square" font-style="normal" font-size="34.375" stroke-width="1" font-weight="400" transform="matrix(11.8081,0,0,11.8081,2616.59,1618.82)"/>
  <g font-family="MS Shell Dlg 2" fill="none" stroke-opacity="1" stroke="#000000" stroke-linejoin="bevel" stroke-linecap="square" font-style="normal" font-size="34.375" stroke-width="1" font-weight="400" transform="matrix(0.999751,0,0,0.999751,2616.59,1618.82)"/>
  <g font-family="MS Shell Dlg 2" fill="none" stroke-opacity="1" stroke="#000000" stroke-linejoin="bevel" stroke-linecap="square" font-style="normal" font-size="50" stroke-width="1" font-weight="400" transform="matrix(0.999751,0,0,0.999751,2746.48,2274.02)">
   <text font-family="MS Shell Dlg 2" fill="#000000" fill-opacity="1" x="0" y="0" stroke="none" font-style="normal" font-size="50" font-weight="400" xml:space="preserve">6189 - 7427</text>
  </g>
  <g font-family="MS Shell Dlg 2" fill="none" stroke-opacity="1" stroke="#000000" stroke-linejoin="bevel" stroke-linecap="square" font-style="normal" font-size="34.375" stroke-width="1" font-weight="400" transform="matrix(0.999751,0,0,0.999751,2616.59,1618.82)"/>
  <g font-family="MS Shell Dlg 2" fill="none" stroke-opacity="1" stroke="#000000" stroke-linejoin="bevel" stroke-linecap="square" font-style="normal" font-size="34.375" stroke-width="1" font-weight="400" transform="matrix(0.999751,0,0,0.999751,2616.59,1618.82)"/>
  <g font-family="MS Shell Dlg 2" fill="none" stroke-opacity="1" stroke="#000000" stroke-linejoin="bevel" stroke-linecap="square" font-style="normal" font-size="34.375" stroke-width="1" font-weight="400" transform="matrix(11.8081,0,0,11.8081,2616.59,1618.82)"/>
  <g font-family="MS Shell Dlg 2" fill="none" stroke-opacity="1" stroke="#000000" stroke-linejoin="bevel" stroke-linecap="square" font-style="normal" font-size="34.375" stroke-width="1" font-weight="400" transform="matrix(11.8081,0,0,11.8081,2616.59,1618.82)"/>
  <g font-family="MS Shell Dlg 2" fill="none" stroke-opacity="1" stroke="#000000" stroke-linejoin="bevel" stroke-linecap="square" font-style="normal" font-size="34.375" stroke-width="1" font-weight="400" transform="matrix(11.8081,0,0,11.8081,2616.59,1618.82)"/>
  <g font-family="MS Shell Dlg 2" fill="none" stroke-opacity="1" stroke="#000000" stroke-linejoin="bevel" stroke-linecap="square" font-style="normal" font-size="34.375" stroke-width="1" font-weight="400" transform="matrix(1,0,0,1,0,0)"/>
 </g>
 <metadata>
  <rdf:RDF xmlns:rdfs="http://www.w3.org/2000/01/rdf-schema#" xmlns:rdf="http://www.w3.org/1999/02/22-rdf-syntax-ns#" xmlns:dc="http://purl.org/dc/elements/1.1/">
   <rdf:Description dc:identifier="" dc:date="2024-10-26T16:33:20" dc:format="image/svg+xml" dc:description="" dc:title="">
    <dc:creator>
     <rdf:Bag>
      <rdf:li>Brenda Avelina Lopez Muñiz</rdf:li>
     </rdf:Bag>
    </dc:creator>
    <dc:publisher>
     <rdf:Bag>
      <rdf:li>QGIS 3.34.9-Prizren</rdf:li>
     </rdf:Bag>
    </dc:publisher>
    <dc:subject>
     <rdf:Bag/>
    </dc:subject>
   </rdf:Description>
   <cc:Work rdf:about="">
    <dc:format>image/svg+xml</dc:format>
    <dc:title></dc:title>
    <dc:date>2024-10-26T16:33:20</dc:date>
    <dc:identifier></dc:identifier>
    <dc:description></dc:description>
    <dc:creator>
     <cc:Agent>
      <dc:title>Brenda Avelina Lopez Muñiz</dc:title>
     </cc:Agent>
    </dc:creator>
    <dc:publisher>
     <cc:Agent>
      <dc:title>QGIS 3.34.9-Prizren</dc:title>
     </cc:Agent>
    </dc:publisher>
   </cc:Work>
  </rdf:RDF>
 </metadata>
</svg>
